<svg height="209.165007" viewBox="0 0 529.11 231.76" width="478.091444" xmlns="http://www.w3.org/2000/svg"><g transform="translate(-155.76 -181.89)"><path d="m417.48 316.72h3v17h-3z" fill="#1b75bc"/><path d="m425.16 316.72h2.77l9.12 11.77v-11.77h2.95v17h-2.5l-9.39-12.12v12.12h-2.94z" fill="#1b75bc"/><path d="m444.51 316.72h6.35c5.35 0 9.05 3.67 9.05 8.46v.05c0 4.8-3.7 8.52-9.05 8.52h-6.35zm6.35 14.3a5.55 5.55 0 0 0 5.91-5.74 5.59 5.59 0 0 0 -5.91-5.79h-3.35v11.51z" fill="#1b75bc"/><path d="m463.84 316.72h3v17h-3z" fill="#1b75bc"/><path d="m477.56 316.6h2.77l7.49 17.15h-3.16l-1.73-4.11h-8l-1.76 4.11h-3.06zm4.28 10.4-2.94-6.81-2.9 6.81z" fill="#1b75bc"/><path d="m490.88 316.72h2.77l9.13 11.77v-11.77h2.94v17h-2.51l-9.38-12.12v12.12h-2.95z" fill="#1b75bc"/><path d="m516.78 325.28a8.61 8.61 0 0 1 8.78-8.8 8.85 8.85 0 0 1 6.66 2.65l-1.92 2.21a6.78 6.78 0 0 0 -4.77-2.11 5.71 5.71 0 0 0 -5.61 6v.05a5.76 5.76 0 0 0 5.61 6.06 6.67 6.67 0 0 0 4.89-2.21l1.92 1.94a8.77 8.77 0 0 1 -6.9 3 8.57 8.57 0 0 1 -8.66-8.79z" fill="#1b75bc"/><path d="m534.38 325.28a8.91 8.91 0 0 1 17.81-.05v.05a8.91 8.91 0 0 1 -17.81 0zm14.67 0a5.83 5.83 0 0 0 -5.79-6.05 5.75 5.75 0 0 0 -5.74 6v.05a5.84 5.84 0 0 0 5.79 6.06 5.75 5.75 0 0 0 5.74-6.06z" fill="#1b75bc"/><path d="m555.68 326.52v-9.8h3v9.68c0 3.16 1.63 4.87 4.3 4.87s4.28-1.61 4.28-4.75v-9.8h3v9.66c0 5.08-2.87 7.63-7.32 7.63s-7.26-2.55-7.26-7.49z" fill="#1b75bc"/><path d="m574.5 316.72h2.78l9.12 11.77v-11.77h2.94v17h-2.5l-9.39-12.12v12.12h-3z" fill="#1b75bc"/><path d="m593.11 325.28a8.61 8.61 0 0 1 8.78-8.8 8.86 8.86 0 0 1 6.66 2.65l-1.92 2.21a6.78 6.78 0 0 0 -4.77-2.11 5.71 5.71 0 0 0 -5.62 6v.05a5.76 5.76 0 0 0 5.62 6.06 6.69 6.69 0 0 0 4.89-2.21l1.92 1.94a8.78 8.78 0 0 1 -6.9 3 8.56 8.56 0 0 1 -8.66-8.79z" fill="#1b75bc"/><path d="m612.12 316.72h3v17h-3z" fill="#1b75bc"/><path d="m619.8 316.72h3v14.28h9v2.73h-12z" fill="#1b75bc"/><path d="m643.09 325.28a8.9 8.9 0 0 1 17.8-.05v.05a8.9 8.9 0 0 1 -17.8 0zm14.67 0a5.84 5.84 0 0 0 -5.8-6.05 5.75 5.75 0 0 0 -5.73 6v.05a5.83 5.83 0 0 0 5.78 6.06 5.76 5.76 0 0 0 5.75-6.06z" fill="#1b75bc"/><path d="m664.66 316.72h12.67v2.72h-9.68v4.65h8.59v2.73h-8.59v6.93h-3z" fill="#1b75bc"/><path d="m417.5 341h3.18l5.19 8 5.18-8h3.18v17h-3v-12.15l-5.37 8h-.1l-5.33-8v12.16h-2.93z" fill="#1b75bc"/><path d="m438.6 341h12.63v2.67h-9.63v4.43h8.53v2.67h-8.53v4.58h9.75v2.67h-12.75z" fill="#1b75bc"/><path d="m454.89 341h6.35c5.35 0 9.05 3.67 9.05 8.46v.05c0 4.79-3.7 8.51-9.05 8.51h-6.35zm6.35 14.3a5.55 5.55 0 0 0 5.91-5.74v-.05a5.58 5.58 0 0 0 -5.91-5.79h-3.35v11.58z" fill="#1b75bc"/><path d="m474.08 341h3v17h-3z" fill="#1b75bc"/><path d="m480.86 349.6v-.05a8.62 8.62 0 0 1 8.78-8.81 8.91 8.91 0 0 1 6.67 2.65l-1.92 2.22a6.79 6.79 0 0 0 -4.77-2.12 5.72 5.72 0 0 0 -5.62 6v.05a5.75 5.75 0 0 0 5.62 6.05 6.69 6.69 0 0 0 4.89-2.21l1.92 1.95a8.78 8.78 0 0 1 -6.91 3 8.56 8.56 0 0 1 -8.66-8.73z" fill="#1b75bc"/><path d="m505.59 340.91h2.78l7.49 17.15h-3.16l-1.7-4.06h-8.05l-1.75 4.11h-3.1zm4.28 10.39-2.94-6.81-2.93 6.81z" fill="#1b75bc"/><path d="m518.77 341h3v14.3h9v2.72h-12z" fill="#1b75bc"/><path d="m542.75 341h7.59a6.84 6.84 0 0 1 4.91 1.7 5.15 5.15 0 0 1 1.42 3.67 5.12 5.12 0 0 1 -4.07 5.16l4.6 6.44h-3.53l-4.18-5.93h-3.75v5.93h-3zm7.37 8.44c2.14 0 3.5-1.12 3.5-2.85v-.05c0-1.82-1.31-2.82-3.52-2.82h-4.36v5.72z" fill="#1b75bc"/><path d="m560.33 341h12.67v2.67h-9.63v4.43h8.54v2.67h-8.54v4.58h9.76v2.67h-12.8z" fill="#1b75bc"/><path d="m575.48 355.58 1.8-2.14a7.84 7.84 0 0 0 5.38 2.21c1.84 0 3-.85 3-2.14 0-1.22-.68-1.88-3.84-2.61-3.62-.87-5.67-1.94-5.67-5.08 0-2.92 2.43-4.94 5.82-4.94a9.44 9.44 0 0 1 6.17 2.14l-1.6 2.26a7.78 7.78 0 0 0 -4.62-1.75c-1.75 0-2.78.9-2.78 2v.05c0 1.31.78 1.9 4 2.68 3.6.87 5.47 2.16 5.47 5v.05c0 3.19-2.5 5.08-6.08 5.08a10.5 10.5 0 0 1 -7.05-2.81z" fill="#1b75bc"/><path d="m592.19 341h12.62v2.67h-9.63v4.43h8.54v2.67h-8.54v4.58h9.75v2.67h-12.74z" fill="#1b75bc"/><path d="m614.51 340.91h2.77l7.49 17.15h-3.16l-1.73-4.06h-8l-1.75 4.11h-3.13zm4.28 10.39-2.94-6.81-2.92 6.81z" fill="#1b75bc"/><path d="m627.69 341h7.59a6.88 6.88 0 0 1 4.91 1.7 5.14 5.14 0 0 1 1.41 3.67 5.11 5.11 0 0 1 -4.06 5.16l4.59 6.44h-3.52l-4.19-5.93h-3.74v5.93h-3zm7.36 8.44c2.15 0 3.51-1.12 3.51-2.85v-.05c0-1.82-1.32-2.82-3.53-2.82h-4.35v5.72z" fill="#1b75bc"/><path d="m644.51 349.6v-.05a8.62 8.62 0 0 1 8.78-8.81 8.91 8.91 0 0 1 6.67 2.65l-1.96 2.22a6.79 6.79 0 0 0 -4.77-2.12 5.72 5.72 0 0 0 -5.62 6v.05a5.75 5.75 0 0 0 5.62 6.05 6.69 6.69 0 0 0 4.89-2.21l1.92 1.95a8.78 8.78 0 0 1 -6.91 3 8.56 8.56 0 0 1 -8.62-8.73z" fill="#1b75bc"/><path d="m663.21 341h3v7.07h8.12v-7.07h3v17h-3v-7.18h-8.13v7.18h-3z" fill="#1b75bc"/><path d="m417.28 387.4 1.32-1.55a5.74 5.74 0 0 0 3.92 1.61c1.34 0 2.2-.62 2.2-1.56 0-.88-.5-1.36-2.81-1.89-2.64-.64-4.13-1.41-4.13-3.7 0-2.13 1.77-3.6 4.24-3.6a6.9 6.9 0 0 1 4.51 1.56l-1.18 1.65a5.58 5.58 0 0 0 -3.37-1.28c-1.27 0-2 .66-2 1.47 0 .95.57 1.38 3 1.94 2.62.64 4 1.58 4 3.63 0 2.32-1.83 3.7-4.44 3.7a7.67 7.67 0 0 1 -5.26-1.98z" fill="#f15a29"/><path d="m429.06 384.57a4.63 4.63 0 0 1 4.57-4.87c3 0 4.49 2.34 4.49 5v.6h-6.92a2.61 2.61 0 0 0 2.7 2.37 3.41 3.41 0 0 0 2.53-1.11l1.26 1.11a4.73 4.73 0 0 1 -3.83 1.75 4.66 4.66 0 0 1 -4.8-4.85zm6.93-.69a2.43 2.43 0 0 0 -2.38-2.46 2.52 2.52 0 0 0 -2.42 2.46z" fill="#f15a29"/><path d="m440.63 379.86h2.15v2.14a3.31 3.31 0 0 1 3.31-2.28v2.28h-.09c-1.88 0-3.19 1.22-3.19 3.7v3.56h-2.15z" fill="#f15a29"/><path d="m447.42 379.86h2.31l2.52 6.87 2.53-6.87h2.22l-3.83 9.42h-1.94z" fill="#f15a29"/><path d="m459.25 376.39h2.3v2h-2.3zm.09 3.47h2.14v9.35h-2.14z" fill="#f15a29"/><path d="m464.64 379.86h2.14v1.45a3.4 3.4 0 0 1 2.93-1.64c2.11 0 3.33 1.41 3.33 3.59v5.95h-2.14v-5.31c0-1.45-.73-2.28-2-2.28a2.08 2.08 0 0 0 -2.11 2.32v5.27h-2.14z" fill="#f15a29"/><path d="m476 391 .8-1.61a6.13 6.13 0 0 0 3.34 1c1.91 0 3-1 3-2.86v-.73a3.93 3.93 0 0 1 -3.3 1.72 4.21 4.21 0 0 1 -4.26-4.38 4.22 4.22 0 0 1 4.26-4.39 4 4 0 0 1 3.28 1.59v-1.4h2.15v7.44a4.78 4.78 0 0 1 -1.19 3.52 5.27 5.27 0 0 1 -3.85 1.26 8.08 8.08 0 0 1 -4.23-1.16zm7.12-6.87a2.62 2.62 0 0 0 -2.75-2.59 2.53 2.53 0 0 0 -2.66 2.57 2.54 2.54 0 0 0 2.66 2.58 2.62 2.62 0 0 0 2.71-2.6z" fill="#f15a29"/><path d="m494.33 386.63v-4.93h-1.19v-1.84h1.19v-2.56h2.15v2.56h2.52v1.84h-2.52v4.59a1 1 0 0 0 1.15 1.17 2.9 2.9 0 0 0 1.33-.32v1.75a3.78 3.78 0 0 1 -1.93.48c-1.58 0-2.7-.69-2.7-2.74z" fill="#f15a29"/><path d="m501.51 376.29h2.15v5a3.37 3.37 0 0 1 2.92-1.64c2.11 0 3.34 1.41 3.34 3.59v5.95h-2.15v-5.29c0-1.45-.73-2.28-2-2.28a2.08 2.08 0 0 0 -2.11 2.32v5.27h-2.15z" fill="#f15a29"/><path d="m512.34 384.57a4.64 4.64 0 0 1 4.58-4.87c3 0 4.49 2.34 4.49 5v.6h-6.88a2.61 2.61 0 0 0 2.7 2.37 3.41 3.41 0 0 0 2.53-1.11l1.26 1.11a4.75 4.75 0 0 1 -3.83 1.75 4.67 4.67 0 0 1 -4.85-4.85zm6.94-.69a2.43 2.43 0 0 0 -2.38-2.46 2.54 2.54 0 0 0 -2.43 2.46z" fill="#f15a29"/><path d="m529.59 379.86h2.15v1.45a3.37 3.37 0 0 1 2.93-1.64c2.11 0 3.33 1.41 3.33 3.59v5.95h-2.15v-5.31c0-1.45-.72-2.28-2-2.28a2.08 2.08 0 0 0 -2.11 2.32v5.27h-2.15z" fill="#f15a29"/><path d="m546.67 389.21v-1.15a3.8 3.8 0 0 1 -3 1.34c-1.77 0-3.33-1-3.33-2.88 0-2.07 1.61-3.06 3.8-3.06a7.94 7.94 0 0 1 2.59.39v-.18c0-1.29-.82-2-2.31-2a6.43 6.43 0 0 0 -2.68.59l-.58-1.72a8 8 0 0 1 3.56-.78c2.77 0 4.12 1.45 4.12 3.95v5.54zm.05-3.91a6 6 0 0 0 -2.15-.37c-1.34 0-2.14.55-2.14 1.45 0 .89.8 1.38 1.81 1.38 1.42 0 2.48-.79 2.48-2z" fill="#f15a29"/><path d="m552.05 386.63v-4.93h-1.18v-1.84h1.18v-2.56h2.15v2.56h2.52v1.84h-2.52v4.59a1 1 0 0 0 1.15 1.17 2.9 2.9 0 0 0 1.33-.32v1.75a3.75 3.75 0 0 1 -1.93.48c-1.58 0-2.7-.69-2.7-2.74z" fill="#f15a29"/><path d="m559.27 376.39h2.3v2h-2.3zm.09 3.47h2.14v9.35h-2.14z" fill="#f15a29"/><path d="m564.14 384.59a5 5 0 0 1 10 0 4.89 4.89 0 0 1 -5 4.86 4.84 4.84 0 0 1 -5-4.86zm7.84 0a2.89 2.89 0 0 0 -2.87-3 2.81 2.81 0 0 0 -2.82 3 2.91 2.91 0 0 0 2.86 3 2.83 2.83 0 0 0 2.85-3z" fill="#f15a29"/><path d="m576.66 379.86h2.15v1.45a3.37 3.37 0 0 1 2.92-1.64c2.12 0 3.34 1.41 3.34 3.59v5.95h-2.15v-5.31c0-1.45-.72-2.28-2-2.28a2.08 2.08 0 0 0 -2.11 2.32v5.27h-2.15z" fill="#f15a29"/><path d="m592.92 388 1-1.45a5.26 5.26 0 0 0 3.06 1.15c.93 0 1.46-.39 1.46-1 0-.72-1-1-2.09-1.31-1.39-.39-2.93-.95-2.93-2.74 0-1.78 1.47-2.86 3.33-2.86a6.46 6.46 0 0 1 3.44 1.07l-.85 1.52a5.42 5.42 0 0 0 -2.64-.89c-.83 0-1.31.39-1.31.94 0 .67 1 .95 2.11 1.31 1.36.42 2.91 1 2.91 2.72 0 2-1.53 2.94-3.48 2.94a6.58 6.58 0 0 1 -4.01-1.4z" fill="#f15a29"/><path d="m602.93 376.39h2.31v2h-2.31zm.09 3.47h2.15v9.35h-2.17z" fill="#f15a29"/><path d="m608.32 379.86h2.15v1.45a3.37 3.37 0 0 1 2.93-1.64c2.11 0 3.33 1.41 3.33 3.59v5.95h-2.14v-5.31c0-1.45-.73-2.28-2-2.28a2.08 2.08 0 0 0 -2.11 2.32v5.27h-2.15z" fill="#f15a29"/><path d="m619.15 384.59a4.83 4.83 0 0 1 4.87-4.89 4.67 4.67 0 0 1 3.74 1.61l-1.33 1.43a3.17 3.17 0 0 0 -2.43-1.17 2.82 2.82 0 0 0 -2.7 3 2.85 2.85 0 0 0 2.8 3 3.3 3.3 0 0 0 2.43-1.17l1.3 1.27a4.72 4.72 0 0 1 -3.83 1.75 4.77 4.77 0 0 1 -4.85-4.83z" fill="#f15a29"/><path d="m629.37 384.57a4.63 4.63 0 0 1 4.57-4.87c3 0 4.49 2.34 4.49 5v.6h-6.89a2.62 2.62 0 0 0 2.7 2.37 3.43 3.43 0 0 0 2.54-1.11l1.26 1.11a4.77 4.77 0 0 1 -3.84 1.75 4.66 4.66 0 0 1 -4.83-4.85zm6.93-.69a2.43 2.43 0 0 0 -2.37-2.46 2.52 2.52 0 0 0 -2.43 2.46z" fill="#f15a29"/><path d="m648.43 378.94-2.24.62-.46-1.77 3.34-1.06h1.52v12.48h-2.16z" fill="#f15a29"/><path d="m654 387.94 1.19-1.67a4.14 4.14 0 0 0 2.84 1.17c1.83 0 2.93-1.61 3-3.9a3.64 3.64 0 0 1 -2.91 1.31c-2.64 0-4.4-1.54-4.4-3.92a4.32 4.32 0 0 1 4.63-4.28 4.45 4.45 0 0 1 3.44 1.31c.92.92 1.51 2.28 1.51 4.72 0 4-2 6.74-5.32 6.74a6 6 0 0 1 -3.98-1.48zm7-7.14a2.35 2.35 0 0 0 -2.59-2.29 2.28 2.28 0 0 0 -2.47 2.3 2.26 2.26 0 0 0 2.54 2.21 2.29 2.29 0 0 0 2.45-2.22z" fill="#f15a29"/><path d="m667.79 378.94-2.24.62-.46-1.77 3.33-1.06h1.58v12.48h-2.16z" fill="#f15a29"/><path d="m675.16 378.94-2.24.62-.46-1.77 3.34-1.06h1.52v12.48h-2.16z" fill="#f15a29"/><path d="m425.55 230.56a24.1 24.1 0 0 1 -8.09-1.41v63.65h16.18v-63.65a24.19 24.19 0 0 1 -8.09 1.41z" fill="#23376d"/><path d="m494.89 271.36c-4.72 4.86-9.77 7.33-15 7.33a18.42 18.42 0 0 1 -18.71-18.58 16.08 16.08 0 0 1 5.4-12.62 18.46 18.46 0 0 1 12.9-4.93c4.95 0 10 2.19 14.95 6.51l1.27 1.11 9.61-11.79-1.05-1a33.54 33.54 0 0 0 -24.55-10 35.14 35.14 0 0 0 -24.55 9.25c-6.74 6.17-10.15 14.27-10.15 24.08s3.27 17.85 9.73 23.95a32.66 32.66 0 0 0 23.13 9.14c10.16 0 19.24-4 27-11.78l1.09-1.11-9.83-10.72z" fill="#23376d"/><path d="m515.4 229.38v63.42h16.18v-34.8c0-5.25 1.44-9.09 4.41-11.75a15.16 15.16 0 0 1 10.55-4c4 0 6.73 1.13 8.49 3.45s2.78 6.41 2.78 11.85v35.25h16.19v-35.7c.14-4.94 1.63-8.56 4.55-11.08a15.4 15.4 0 0 1 10.45-3.81c8.47 0 12.42 4.86 12.42 15.3v35.29h16.18v-39.2c0-8.41-2.32-15-6.88-19.49s-10.59-6.81-17.92-6.81c-8.76 0-16.27 3.57-22.37 10.61-4-7-10.68-10.61-20-10.61a25.38 25.38 0 0 0 -12.86 3.45 22.71 22.71 0 0 0 -5.9 4.84v-6.21z" fill="#23376d"/><path d="m680.18 219.33 4.69-13h-235.26v.06a23.81 23.81 0 0 1 -3.77 12.91z" fill="#23376d"/><path d="m440.57 206.5a15 15 0 1 1 -15-15 15 15 0 0 1 15 15z" fill="#f15a29"/><path d="m629.78 268.62s17-6 18.86-6.73l4.14-1.46a9.91 9.91 0 0 0 -6.58-18.69l-10.77 3.8-4.75-14 3.32-1.14c4.33-1.31 18.37-7 30.24 1.13a24.29 24.29 0 0 1 10.55 17.63c1.66 13-5.47 20.47-15.51 25.63l18 18h-23.34l-24.11-24.11z" fill="#23376d"/><path d="m382 286.87a4.79 4.79 0 0 0 -1.38-3.05 3.53 3.53 0 0 0 -3-.78 4.73 4.73 0 0 0 -1.51.45 106.17 106.17 0 0 0 -2.95-14.29l-2.22.36c.19.67.36 1.34.53 2a3 3 0 0 0 -.56-.29 3.62 3.62 0 0 0 -2.09-.12 3.85 3.85 0 0 0 -2.69 1.79 3.9 3.9 0 0 0 -.29 2.87 6.6 6.6 0 0 0 1.07 2.44 7.83 7.83 0 0 0 .61.73l-3 .68h-.08l.59 2.61v.08l8.33-1.88c.19 1.1.36 2.21.51 3.32l-8.49 1.11h-.09l.36 2.74 8.56-1.11c.25 2.35.43 4.73.52 7.12a1.46 1.46 0 0 1 -1.67.85h-.09a1.19 1.19 0 0 1 -1.22-.82 3.09 3.09 0 0 1 -.14-.91l-.15-3.49v-.09l-2 .09h-.09l.08 1.72c-.38.22-.69.4-.9.54a9.11 9.11 0 0 0 -1.62 1.21 2.45 2.45 0 0 0 -.68 1.29 3.14 3.14 0 0 0 0 .72l.15 3.3v.09l2.05-.09h.08l-.13-2.92c0-.12 0-.3 0-.52a.66.66 0 0 1 .33-.53 4.92 4.92 0 0 1 .63-.35l.26-.12v.11a4.44 4.44 0 0 0 .64 2.16 3 3 0 0 0 2.68 1.38h.22a3.4 3.4 0 0 0 1.53-.47l.21-.14v1.1c0 1.19 0 2.37-.06 3.55a5.92 5.92 0 0 0 -1.27-.65 7.56 7.56 0 0 0 -2.24-.48 3.57 3.57 0 0 0 -2.72 1 4.58 4.58 0 0 0 -1.3 3.22 6.68 6.68 0 0 0 .37 2.71c.14.3.29.6.47.93l1.57.08 4.89-3.39c-.09 1.42-.22 2.85-.37 4.26l-8.41-1h-.09l-.31 2.66v.09l8.48 1c-.41 3-.95 6-1.62 8.91l-1.37-.29.65-3.07a6.15 6.15 0 0 0 0-1.7 2.5 2.5 0 0 0 -2.09-2.18 2.93 2.93 0 0 0 -3 .89 6.24 6.24 0 0 0 -1.25 2.86 6.57 6.57 0 0 0 -.1 2.28 3.07 3.07 0 0 0 .15.66h-2.79-.08l-.11 2.37 2.87-.21h1.23l.76.06h.08l.45-2.09v-.07h-.07a1.22 1.22 0 0 1 -.77-.58 3.41 3.41 0 0 1 0-1.84 2.56 2.56 0 0 1 .55-1.24 1.33 1.33 0 0 1 1.32-.32 1.17 1.17 0 0 1 1 1.33 5 5 0 0 1 -.08.5l-.93 4.39v.08l3 .63c-.28 1.09-.57 2.17-.87 3.25l2.14.61a105.94 105.94 0 0 0 3.45-40.78v-.14a2.23 2.23 0 0 1 .58-.34 2.83 2.83 0 0 1 .76-.18 1.89 1.89 0 0 1 1.48.34 2.23 2.23 0 0 1 .71 1.53 4.29 4.29 0 0 1 -.67 3 4.56 4.56 0 0 1 -1.41 1.43l.14 2.27.78-.49a8.37 8.37 0 0 0 2.32-2.46 6.53 6.53 0 0 0 .88-4.28zm-12.66-8.31a3.09 3.09 0 0 1 -.63-.42 2.74 2.74 0 0 1 -.87-1.46 2.66 2.66 0 0 1 .27-2 2.35 2.35 0 0 1 1.61-1.13 2.84 2.84 0 0 1 .7-.08 2.79 2.79 0 0 1 1.15.24 3.2 3.2 0 0 1 .57.4c.28 1.2.54 2.4.77 3.61zm-.11 28.29a3 3 0 0 1 -.15-.34 3 3 0 0 1 -.16-1.05 3 3 0 0 1 .61-1.8 2 2 0 0 1 1.67-.71h.17a6.22 6.22 0 0 1 1.81.39 5.12 5.12 0 0 1 .7.27z" fill="#23376d"/><path d="m188.59 238.17 1.69-2v-.05a3.23 3.23 0 0 1 -.4-.79 1.92 1.92 0 0 1 .46-1.78 2.26 2.26 0 0 1 1-.71 1 1 0 0 1 1 .19.84.84 0 0 1 .31.84 1.94 1.94 0 0 1 -.18.42l-.82 1 1.34 1.12.79-.95a2.45 2.45 0 0 1 .55-.36 1 1 0 0 1 1.11.17 1.34 1.34 0 0 1 .51 1.2 2.22 2.22 0 0 1 -.55 1.35 2 2 0 0 1 -1.78.83 3.36 3.36 0 0 1 -1.69-.85l-.06-.06-1.66 2-.07.07.08.06 1 .72a4.52 4.52 0 0 0 2.17.61h.33a4.55 4.55 0 0 0 3.16-1.83 6.2 6.2 0 0 0 1.45-2.77 2.77 2.77 0 0 0 -1-2.81 1.9 1.9 0 0 0 -1.25-.46h-.08a2.78 2.78 0 0 0 -.47.11l1.93-2.3 3.88 3.25 1.77-2.12-6.56-5.49c.88-.93 1.78-1.83 2.69-2.72l5.92 6.18.06.07 2-1.91-6-6.26q2-1.83 4.05-3.56a1.42 1.42 0 0 1 .31 0 1.66 1.66 0 0 1 1 .64 1.06 1.06 0 0 1 .14 1.2 3 3 0 0 1 -.89 1 3.8 3.8 0 0 1 -.43.28l-.65.39-.11.06.09.08 1 .85a5.58 5.58 0 0 0 2.55 1.07 4.36 4.36 0 0 0 .51 0 4.68 4.68 0 0 0 2.91-1.1 6.63 6.63 0 0 0 1.6-1.79 4.65 4.65 0 0 0 .66-1.57c.14.18.34.43.6.74l.8.95a2.43 2.43 0 0 0 -.26.29 3.75 3.75 0 0 0 -.36.58v.06l1.54 1.17v-.12a2.22 2.22 0 0 1 .76-1.11 1.93 1.93 0 0 1 1-.39.75.75 0 0 1 .65.37.9.9 0 0 1 0 1.05 3.6 3.6 0 0 1 -1.07 1.06 3.55 3.55 0 0 1 -2 .57 6.09 6.09 0 0 1 -2.11-.44h-.1l-.41 1.63v.08h.07a7.19 7.19 0 0 0 1.76.4h.43a7.22 7.22 0 0 0 5.69-3.22 2.37 2.37 0 0 0 -.09-2.67 2.34 2.34 0 0 0 -2-1.09h-.06a3.83 3.83 0 0 0 -1.24.26l.24-.19-5.36-6.67c1.13-.79 2.26-1.55 3.41-2.29l4.55 7.29v.07l2.27-1.42.07-.05-4.59-7.33q4.42-2.67 9.1-4.88l.76 1.52a4.74 4.74 0 0 0 -.91.07 7.67 7.67 0 0 0 -2.39.76 5.83 5.83 0 0 0 -2.47 2 2.39 2.39 0 0 0 -.09 2.45 2.75 2.75 0 0 0 2.27 1.61h.38a6 6 0 0 0 2.62-.72 8.23 8.23 0 0 0 2.13-1.53 6.23 6.23 0 0 0 .52-.62l1 2v.08l2.39-1.21h.08l-3.83-7.63a104.47 104.47 0 0 1 14.83-5.17l.31 1-8.06 2.57a5.61 5.61 0 0 0 -1.63.78 2.11 2.11 0 0 0 .51 3.88 3.52 3.52 0 0 0 2.1-.07l3.54-1.12a1.59 1.59 0 0 1 .77-.07.57.57 0 0 1 .43.39.76.76 0 0 1 -.26.89 3.23 3.23 0 0 1 -1 .45l-.3.1a8.87 8.87 0 0 1 -2.12.39 4.4 4.4 0 0 1 -1.65-.15l-2.4 1.35-.12.06.11.08c.44.32.9.64 1.36.95a3.81 3.81 0 0 0 2.27-.11 2.77 2.77 0 0 1 2.53.92 13.13 13.13 0 0 1 1.27 1.36l2.54-.81-.09-.1c-.21-.22-.38-.4-.5-.54-.41-.41-.71-.69-.92-.87a6 6 0 0 0 -1.46-.74l-.54-.17 1.16-.37a4.53 4.53 0 0 0 2.13-1.33 2.4 2.4 0 0 0 .45-2.42 2 2 0 0 0 -1.12-1.3 2.42 2.42 0 0 0 -1.7-.07l-4.41 1.41a1 1 0 0 1 -.57 0 .48.48 0 0 1 -.34-.32.57.57 0 0 1 .24-.63 1.67 1.67 0 0 1 .37-.22l7.93-2.52 1.73 5.41v.09l2.55-.82h.09l-2.55-8q1.74-.42 3.48-.78l1.62 8.45v.08l2.71-.52-1.59-8.56a101.89 101.89 0 0 1 12-1.42l.13 1.54-6.84.6a5.08 5.08 0 0 0 -1.42.42 2.46 2.46 0 0 0 -1.22 2.57 2.58 2.58 0 0 0 1.17 2.11 5 5 0 0 0 3 .47 4.71 4.71 0 0 0 2.57-.87 2.26 2.26 0 0 0 .78-2.07 2.13 2.13 0 0 0 -.4-1.09l-.19-.22 2.74-.24.47 5.37v.09l2.66-.24h.09l-.75-8.55c.64 0 1.28-.06 1.92-.07v-2.23a105.34 105.34 0 0 0 -41 8.94 9.26 9.26 0 0 1 -1-.47 3.23 3.23 0 0 1 -1.68-1.61 1.32 1.32 0 0 1 -.05-1.14 1.43 1.43 0 0 1 .75-.68l1.32-.56-.55-1.32v-.08l-2 .85a3.35 3.35 0 0 0 -1.58 1.14 2.3 2.3 0 0 0 0 2.23 4 4 0 0 0 2 1.9 11.13 11.13 0 0 0 1.22.48 106.54 106.54 0 0 0 -10.55 5.61 2.33 2.33 0 0 1 -.53-.37 2.91 2.91 0 0 1 -.48-.62 1.84 1.84 0 0 1 -.31-1.48 2.28 2.28 0 0 1 1.1-1.29 4.18 4.18 0 0 1 3-.64 4.82 4.82 0 0 1 1.88.67l2-1.05-.78-.52a8.46 8.46 0 0 0 -3.2-1.09 6.62 6.62 0 0 0 -4.25 1 4.8 4.8 0 0 0 -2.2 2.53 3.56 3.56 0 0 0 .53 3 4.62 4.62 0 0 0 1 1.19l-1.32.83h-.08a104.47 104.47 0 0 0 -12.58 9.78l-.45.44c-1 .91-2 1.85-2.92 2.79l-.7.68-.07.06c-1.71 1.72-3.38 3.48-5 5.33l2.4.68c.24-.28.5-.54.75-.81l1.51 1.26-2 2.36a1.45 1.45 0 0 0 0-.3 1.48 1.48 0 0 0 -.55-1.12 2.54 2.54 0 0 0 -2.71-.47 5.78 5.78 0 0 0 -2.21 1.75 5.27 5.27 0 0 0 -1.45 3.47 3.22 3.22 0 0 0 1.17 2.48zm72.32-37.69a1.44 1.44 0 0 1 -.89.3 1.62 1.62 0 0 1 -1.09-.22 1 1 0 0 1 -.45-.81 1.42 1.42 0 0 1 .35-1.14 1.14 1.14 0 0 1 .38-.23l1.21-.11a1.21 1.21 0 0 1 .35.19 1.36 1.36 0 0 1 .45 1 1.21 1.21 0 0 1 -.31 1.02zm-32.54 6.88h.42l.53 1.05a4.59 4.59 0 0 1 -.54.76 5.3 5.3 0 0 1 -1.64 1.31 3.65 3.65 0 0 1 -1.47.45 1.16 1.16 0 0 1 -1.12-.72 1.06 1.06 0 0 1 0-1.09 4.75 4.75 0 0 1 1.8-1.28 4.56 4.56 0 0 1 1.79-.49zm-18.24 7.3 1.87 2.34s.16.23.1 1.56a3.56 3.56 0 0 1 -1.29 2.77 2.55 2.55 0 0 1 -1.91.53 2.63 2.63 0 0 1 -.6-.15l-.13-.05.08-.06a3.31 3.31 0 0 0 1.31-1.88 2.35 2.35 0 0 0 -.53-1.94 2.82 2.82 0 0 0 -1.28-.91l-.33-.09c.88-.71 1.78-1.44 2.71-2.12z" fill="#23376d"/><path d="m192.19 357.5a4.18 4.18 0 1 0 4.18 4.18 4.18 4.18 0 0 0 -4.18-4.18z" fill="#23376d"/><path d="m271.64 226.9a70.87 70.87 0 1 0 70.87 70.87 71 71 0 0 0 -70.87-70.87zm0 139.64a68.77 68.77 0 1 1 68.78-68.77 68.85 68.85 0 0 1 -68.78 68.77z" fill="#23376d"/><path d="m271.64 181.89a115.88 115.88 0 1 0 115.89 115.88 116 116 0 0 0 -115.89-115.88zm0 229.67a113.79 113.79 0 1 1 113.79-113.79 113.92 113.92 0 0 1 -113.79 113.79z" fill="#23376d"/><path d="m217.13 352.4a4.18 4.18 0 1 0 4.18 4.17 4.18 4.18 0 0 0 -4.18-4.17z" fill="#23376d"/></g><circle cx="171.56" cy="174.69" fill="#23376d" r="4.18"/><path d="m352.75 357.5a4.18 4.18 0 1 0 4.18 4.18 4.18 4.18 0 0 0 -4.18-4.18z" fill="#23376d" transform="translate(-155.76 -181.89)"/><path d="m175.22 260.16-2.08-.82a105.43 105.43 0 0 0 -4.81 16l-1.21.1a8.68 8.68 0 0 0 -3.12 1 4.56 4.56 0 0 0 -2.21 3 4.89 4.89 0 0 0 .16 2.79 3.11 3.11 0 0 0 2.41 2 5.74 5.74 0 0 0 1.17.12h.68s.37-.07.6-.12a105.72 105.72 0 0 0 1.19 34.55l2.19-.44c-.17-.83-.3-1.67-.44-2.5l2.32-.37.75 3.14-2.48.6a3.16 3.16 0 0 0 -1.05.78 3.44 3.44 0 0 0 -.48 3.08 4.19 4.19 0 0 0 1.06 2 2.09 2.09 0 0 0 1.54.67 2.44 2.44 0 0 0 .59-.07 1.84 1.84 0 0 0 .6-.29l.23-.2-.56-2.32-.11.13-.11.11a1.36 1.36 0 0 1 -.46.24.64.64 0 0 1 -.64-.12 1.4 1.4 0 0 1 -.38-.73c-.12-.49 0-.82.35-1l.27-.06 2.15-.52.46 1.91a2.81 2.81 0 0 0 1.11 1.72 2.35 2.35 0 0 0 2 .33 2.54 2.54 0 0 0 1.93-1.61 4.24 4.24 0 0 0 .05-2.49 4.17 4.17 0 0 0 -1.22-2.19 2.46 2.46 0 0 0 -2.33-.59l-1 .23-.73-3 4.63-.75h.08l-.32-2.67v-.08l-8.64 1.4-.06-.35c-.12-.88-.22-1.77-.33-2.65v-.39l8.63-.87h.08l-.27-2.75-8.71.88-.07-.63c-.08-1-.16-1.93-.21-2.9l-.06-3.25a1.64 1.64 0 0 1 .26-.59 2 2 0 0 1 1.58-.6 1.21 1.21 0 0 1 1.26.86 3.59 3.59 0 0 1 .11.91l.05 3.5v.08h2 .09v-1.72l.92-.51a9.18 9.18 0 0 0 1.65-1.17 2.44 2.44 0 0 0 .71-1.27 3.73 3.73 0 0 0 .06-.72l-.06-3.3v-.09h-2-.09l.05 2.92v.49a.67.67 0 0 1 -.34.52c-.18.11-.39.22-.64.34l-.26.11v-.11a4.24 4.24 0 0 0 -.58-2.17 3 3 0 0 0 -2.78-1.47h-.08a3.43 3.43 0 0 0 -1.54.42l-.42.28v-1a106.19 106.19 0 0 1 .82-11.45l1.47.16-.57 5.41a6 6 0 0 0 .3 1.6 3.23 3.23 0 0 0 2.83 1.89 3.62 3.62 0 0 0 3.48-1.26 4.89 4.89 0 0 0 .95-2.57c0-.2 0-.35 0-.49a1.82 1.82 0 0 0 0-.33v-.08l-2.07-.22.05.14a.77.77 0 0 1 .05.28 6.11 6.11 0 0 1 0 .74 1.19 1.19 0 0 1 -.46.84 2 2 0 0 1 -1.42.3 1.52 1.52 0 0 1 -1.44-1 2.61 2.61 0 0 1 -.07-.83l.45-4.21 5.16.56h.09l.28-2.67v-.08l-8.68-.93v-.25c.16-1.05.32-2.1.52-3.15l8.77 1.83.56-2.71-8.75-1.82c.14-.64.26-1.29.41-1.93l.37-1.5c.14-.55.29-1.1.44-1.65a4.68 4.68 0 0 1 .62-.27 1.65 1.65 0 0 1 1.2-.05 1.06 1.06 0 0 1 .8.91 2.88 2.88 0 0 1 -.17 1.32c0 .07-.09.23-.2.48s-.22.48-.32.69v.11h.12c.42.06.86.11 1.3.15h.17a5.48 5.48 0 0 0 2.53-.56 4.48 4.48 0 0 0 2.22-2.81 6.56 6.56 0 0 0 .31-2.39 4.58 4.58 0 0 0 -.34-1.66l.92.27c.61.18 1 .29 1.26.35h.08l.83-2.63-8.48-2.68c.11-.49.3-1.06.52-1.61zm-8 21.41a1.9 1.9 0 0 1 -.41.15 3.68 3.68 0 0 1 -1.55 0 2.93 2.93 0 0 1 -1.42-.66 1.15 1.15 0 0 1 -.38-1.16c.21-1 1.07-1.6 2.56-1.87a9.91 9.91 0 0 1 1.81-.1c-.27 1.2-.46 2.42-.65 3.64zm8.9 38.71a1.19 1.19 0 0 1 .91.08 1.26 1.26 0 0 1 .49.81 1.15 1.15 0 0 1 -.08.85 1.13 1.13 0 0 1 -.76.49 1 1 0 0 1 -1.21-.34 2.28 2.28 0 0 1 -.22-.61l-.24-1zm.74-54.77s.26.09 1 1.22a3.57 3.57 0 0 1 .5 3 2.55 2.55 0 0 1 -1.28 1.51 1.92 1.92 0 0 1 -.57.22h-.14v-.09a3.3 3.3 0 0 0 0-2.3 2.31 2.31 0 0 0 -1.53-1.29 2.66 2.66 0 0 0 -.83-.13 2.69 2.69 0 0 0 -.74.1c-.12 0-.55.12-.73.19.3-1 .59-1.94.91-2.91l.16-.48v-.1z" fill="#23376d" transform="translate(-155.76 -181.89)"/><path d="m297.77 206.56a6.28 6.28 0 0 0 3.11.43 2.76 2.76 0 0 0 2.3-1.9 1.9 1.9 0 0 0 0-1.46 3.87 3.87 0 0 0 -.26-.4l2.81 1-1.73 4.7v.08l2.59 1 3-8.29a102.87 102.87 0 0 1 11.19 5.23l-.71 1.45-6.16-3a4.73 4.73 0 0 0 -1.43-.37h-.1a2.48 2.48 0 0 0 -2.29 1.55c-.86 1.74-.12 3.2 2.19 4.35a4.73 4.73 0 0 0 2.65.6 2.25 2.25 0 0 0 1.74-1.36 2.17 2.17 0 0 0 .23-1.14c0-.08 0-.18 0-.29l2.47 1.22-2.37 4.69c-.16 0-.29-.13-.46-.16a3 3 0 0 0 -.68-.09h-.07l-.37 1.77v.12h.12a1.85 1.85 0 0 1 .45 0 1.77 1.77 0 0 1 .88.24c.79.47 1 .95.72 1.47a.89.89 0 0 1 -.95.44 3.42 3.42 0 0 1 -1.42-.5 3.57 3.57 0 0 1 -1.4-1.64 6 6 0 0 1 -.51-2.1v-.1l-1.85.39v.08a7.68 7.68 0 0 0 .39 1.75 6.39 6.39 0 0 0 2.77 3.17 6.49 6.49 0 0 0 2.75 1h.24a2.5 2.5 0 0 0 2.22-3.62 4.07 4.07 0 0 0 -.81-1l.33.17h.08l3.85-7.77q2.57 1.49 5 3.11c.17.4.31.9.37 1.06a1.68 1.68 0 0 1 -.09 1.62 1.51 1.51 0 0 1 -.9.66 1.32 1.32 0 0 1 -1.11-.31l-2.63-1.86h-.07l-1.14 1.61-.05.07 1.49 1.06c-.1.48-.16.87-.2 1.15a6.07 6.07 0 0 0 0 2.12 2.48 2.48 0 0 0 .37.88 2.31 2.31 0 0 0 .54.54l.24.17 2.11 1.5.08.05 1.13-1.61.06-.07-2-1.41a.57.57 0 0 1 -.25-.23 1.54 1.54 0 0 1 -.15-.74 3.14 3.14 0 0 1 .1-.63l.07-.21a3.53 3.53 0 0 0 2 .63h.13a2.5 2.5 0 0 0 2-1.15 3.39 3.39 0 0 0 .67-2.07c0-.13 0-.59-.07-.92 1.3.91 2.57 1.84 3.81 2.81l-1.7 2.39-2.09-1.6h-.07l-1.23 1.74 2.2 1.56-2.17 3.07-.05.07 2.18 1.54.07.05 5.06-7.13c.68.55 1.37 1.1 2 1.67a4 4 0 0 1 2.17-1.06c-.62-.55-1.28-1.07-1.91-1.6l-.09-.06a105.29 105.29 0 0 0 -33.33-18.8l.11 2.41c.36.12.71.27 1.06.4l-.73 2-2.89-1.05.29-.07a1.46 1.46 0 0 0 .87-.9 2.55 2.55 0 0 0 -.47-2.71 6 6 0 0 0 -2.4-1.49 5.27 5.27 0 0 0 -3.76-.18 3.24 3.24 0 0 0 -1.94 1.94v.08l2.47.91h.06v-.05a3.18 3.18 0 0 1 .6-.64 1.87 1.87 0 0 1 1.84-.17 2.14 2.14 0 0 1 1 .72 1 1 0 0 1 .17 1 .81.81 0 0 1 -.68.58 2.63 2.63 0 0 1 -.46 0l-1.2-.44-.57 1.55v.08l1.16.43a2.66 2.66 0 0 1 .53.39 1 1 0 0 1 .21 1.1 1.34 1.34 0 0 1 -1 .9 2.2 2.2 0 0 1 -1.45-.07 2 2 0 0 1 -1.38-1.39 3.22 3.22 0 0 1 .23-1.88v-.08l-2.52-.92v.09c-.14.46-.24.85-.33 1.22a4.32 4.32 0 0 0 .29 2.55 4.57 4.57 0 0 0 2.83 2.31zm16.89 2.37a1.18 1.18 0 0 1 -.8.73 1.6 1.6 0 0 1 -.92-.2 1.62 1.62 0 0 1 -.82-.76 1 1 0 0 1 0-.92 1.37 1.37 0 0 1 .89-.8h.18.27l1.08.54a1.14 1.14 0 0 1 .21.35 1.33 1.33 0 0 1 -.09 1.06z" fill="#23376d" transform="translate(-155.76 -181.89)"/><path d="m338.72 214.73a2.22 2.22 0 0 0 1.24.54h.14a1.26 1.26 0 0 0 1-.46 1.39 1.39 0 0 0 .31-1.26 2.14 2.14 0 0 0 -.72-1.15 1.94 1.94 0 0 0 -1.23-.47 1.39 1.39 0 0 0 -1.12.52 1.27 1.27 0 0 0 -.27 1.18 2.1 2.1 0 0 0 .65 1.1z" fill="#23376d" transform="translate(-155.76 -181.89)"/><path d="m345.53 222.39-.94 2.2c.57.57 1.1 1.19 1.66 1.77l-2.6 2.46a6.24 6.24 0 0 1 -2.62.06 4 4 0 0 1 -1.87-1 1.85 1.85 0 0 1 -.6-1 1 1 0 0 1 .27-1 1.1 1.1 0 0 1 1.19-.34 2.66 2.66 0 0 1 1 .61c.22.2.25.26.26.26l.1.11 1.1-1.19-1.26-1.16a2.68 2.68 0 0 1 -.74-1 1.27 1.27 0 0 1 1-1.49.85.85 0 0 1 .68.21.81.81 0 0 1 .25 1 3 3 0 0 1 -.42.49l-.07.07 1.23 1.12h.05.06a.45.45 0 0 0 .13-.11l.13-.14a2.71 2.71 0 0 0 .77-1.56 3.1 3.1 0 0 0 -1.26-2.56 3.4 3.4 0 0 0 -2.08-1h-.19a2.37 2.37 0 0 0 -1.78.84 2.21 2.21 0 0 0 -.56 1.75 3.12 3.12 0 0 0 .43 1.51 2.19 2.19 0 0 0 -.88 0 2.07 2.07 0 0 0 -1.16.66 2.39 2.39 0 0 0 -.5 2.36 4.52 4.52 0 0 0 1.39 2.26 6.22 6.22 0 0 0 2.69 1.49 5.82 5.82 0 0 0 1.16.12h.45l-2 1.87-.07.06 1.84 1.94.07.07 6.29-6c.78.86 1.54 1.72 2.28 2.59l-6.54 5.51-.07.05 1.72 2 .06.07 6.58-5.54a105.87 105.87 0 0 1 7 9.83l-1.4.95-3.88-5.68a5 5 0 0 0 -1.06-1 2.44 2.44 0 0 0 -2.84.19c-1.6 1.09-1.68 2.72-.22 4.86a4.68 4.68 0 0 0 2 1.82 2.27 2.27 0 0 0 2.19-.33 2.15 2.15 0 0 0 .75-.89 2 2 0 0 0 .1-.27l1.55 2.27-4.45 3h-.08l1.51 2.21.05.07 7.21-4.92c.29.48.6.94.88 1.43l1.82-1.3a105.28 105.28 0 0 0 -17.76-22.66zm7.21 19.35a1.17 1.17 0 0 1 -1.06.24 1.54 1.54 0 0 1 -.7-.63 1.62 1.62 0 0 1 -.34-1.06 1 1 0 0 1 .48-.78 1.55 1.55 0 0 1 .87-.3 1 1 0 0 1 .3 0 1.06 1.06 0 0 1 .39.22l.68 1a1.1 1.1 0 0 1 0 .4 1.34 1.34 0 0 1 -.62.91z" fill="#23376d" transform="translate(-155.76 -181.89)"/><path d="m255.7 387.05a1.4 1.4 0 0 1 1-.18l1.42.21.23-1.5-2.17-.33a3.28 3.28 0 0 0 -1.94.14 2.33 2.33 0 0 0 -1.18 1.9 4 4 0 0 0 .69 2.65 7.77 7.77 0 0 0 .68.94 94.24 94.24 0 0 1 -22.25-7l-.86 2.06a97.88 97.88 0 0 0 9.74 3.83l-.49 1.26-6.41-2.49a5.41 5.41 0 0 0 -1.45-.24 2.45 2.45 0 0 0 -2.24 1.76 2.6 2.6 0 0 0 .12 2.41 4.91 4.91 0 0 0 2.45 1.73 4.8 4.8 0 0 0 2.69.36 2.25 2.25 0 0 0 1.61-1.51 2.1 2.1 0 0 0 .12-1.16 2.27 2.27 0 0 0 -.07-.28l2.57 1-1.95 5v.08l2.5 1h.08l3.15-8.12c2.77.84 5.59 1.54 8.43 2.12l-.32 1.38-3.17-.72a8.92 8.92 0 0 0 -1.5-.18 1.87 1.87 0 0 0 -1.94 1.47 1.94 1.94 0 0 0 .57 1.9 3.85 3.85 0 0 0 1.86 1l3.62.83a1.3 1.3 0 0 1 .66.38.64.64 0 0 1 .17.63 1.27 1.27 0 0 1 -1.32 1 8.94 8.94 0 0 1 -4-1.1c-.27-.3-.54-.62-.83-1l-2.23.66h-.08v.08a1.93 1.93 0 0 0 .4.8 4.39 4.39 0 0 0 2.44 1.25 2.76 2.76 0 0 1 1.8 1.9 7.56 7.56 0 0 1 .41 1.59v.05l2.59.6-.12-.73a5.76 5.76 0 0 0 -.42-1.31 4.24 4.24 0 0 0 -.64-.91c-.16-.18-.3-.34-.42-.46l.27.07a5.41 5.41 0 0 0 3.38-.13 2.34 2.34 0 0 0 1.4-1.72 2.23 2.23 0 0 0 -.28-1.78 2.21 2.21 0 0 0 -1.41-1l-4.5-1-.26-.13a.62.62 0 0 1 -.35-.72.56.56 0 0 1 .47-.49.88.88 0 0 1 .35 0l5.15 1.18h.09l.67-2.95q1.7.3 3.39.54l.31-2.21c-.6-.08-1.19-.19-1.78-.28a3.81 3.81 0 0 1 -.73-.92 3.21 3.21 0 0 1 -.59-2.24 1.33 1.33 0 0 1 .42-.97zm-20.48 5a1.18 1.18 0 0 1 -.73.8 1.48 1.48 0 0 1 -.93-.12 1.6 1.6 0 0 1 -.88-.69 1 1 0 0 1 -.05-.91 1.41 1.41 0 0 1 .82-.88 1.08 1.08 0 0 1 .3 0h.15l1.12.43a1.33 1.33 0 0 1 .24.33 1.38 1.38 0 0 1 -.04 1.07z" fill="#23376d" transform="translate(-155.76 -181.89)"/><path d="m299 392.57a4.47 4.47 0 0 0 -.69.22 2.74 2.74 0 0 0 -.69.39 5.53 5.53 0 0 0 -.8.81l-.26.32a3 3 0 0 0 -1.36-.77 4.86 4.86 0 0 0 -4.76 1.58 3.08 3.08 0 0 0 -.66 2.76 3.41 3.41 0 0 0 2.47 2.74 5 5 0 0 0 1.36.18 7.49 7.49 0 0 0 1.64-.2l.89-.2-.37-1.64v-.08l-.34.07-.34.08a3.15 3.15 0 0 1 -1.49 0 1.5 1.5 0 0 1 -1.11-1.22 1.66 1.66 0 0 1 .3-1.43 2.08 2.08 0 0 1 1.24-.82 1.92 1.92 0 0 1 1.25.12 1.25 1.25 0 0 1 .72.9l.28 1.24v.08l1.64-.37h.09l-.3-1.33s0-.12.13-.51a2.42 2.42 0 0 1 .54-.79 1.18 1.18 0 0 1 .4-.27 4.67 4.67 0 0 1 .57-.17l.29-1.82-.47.07z" fill="#23376d" transform="translate(-155.76 -181.89)"/><path d="m317.43 383.11-1.28-1.86c-.41.22-.84.41-1.26.63l-.44-.56-.65-.69a8.78 8.78 0 0 0 -2.78-1.78 4.58 4.58 0 0 0 -3.74.18 4.78 4.78 0 0 0 -2.08 1.87 3.07 3.07 0 0 0 0 3.09 5.77 5.77 0 0 0 1.09 1.5l.24.21a95 95 0 0 1 -24 6.07l-.44-.92a8.14 8.14 0 0 0 -2.18-2.58 6.53 6.53 0 0 0 -4-1.33h-.13a4.82 4.82 0 0 0 -3.19 1 3.56 3.56 0 0 0 -1.11 2.86 4.9 4.9 0 0 0 .28 1.55h-1.44-.62v2.23h1.89.27l.14 8.54v.09h2.67.09l-.14-8.66c2.88-.1 5.76-.28 8.61-.62l.16 1.54-3.12.33a6.31 6.31 0 0 0 -1.62.49 2.52 2.52 0 0 0 -1.43 2.67 2.93 2.93 0 0 0 1.77 2.57 6.26 6.26 0 0 0 3.1.3 6.61 6.61 0 0 0 2.21-.61 2.51 2.51 0 0 0 .57-.34l.85 2.66v.08l2.28-.62-1.09-2.65c-.13-.38-.26-.77-.37-1.18a4.26 4.26 0 0 1 -.18-.74v-.09l-2.2.23v.08a1.2 1.2 0 0 1 -.32.91 3.34 3.34 0 0 1 -1.75.56 2.61 2.61 0 0 1 -1.35-.14 1.32 1.32 0 0 1 -.71-1.15 1.18 1.18 0 0 1 1-1.37 3.74 3.74 0 0 1 .5-.07l4.45-.47h.02l-.35-3.31h.05a97.05 97.05 0 0 0 22.6-6.19l.59 1.58-.2.08a5 5 0 0 0 -.75.35 2.75 2.75 0 0 0 -.69.49 6.15 6.15 0 0 0 -.68.89l-.14.24-.08.11a3.1 3.1 0 0 0 -1.44-.58 4.91 4.91 0 0 0 -4.52 2.21 3.07 3.07 0 0 0 -.27 2.82 3.37 3.37 0 0 0 2.81 2.38 4.48 4.48 0 0 0 .64.05 6.61 6.61 0 0 0 2.32-.47l.48-.17.39-.15-.59-1.57v-.08l-.33.12-.2.08h-.12a3 3 0 0 1 -1.52.2 1.48 1.48 0 0 1 -1.26-1.06 1.67 1.67 0 0 1 .1-1.46 2.1 2.1 0 0 1 1.12-1 1.92 1.92 0 0 1 1.25 0 1.23 1.23 0 0 1 .84.79l.47 1.27 1.66-.62-.47-1.27s0-.12.07-.52a2.24 2.24 0 0 1 .43-.86 1.64 1.64 0 0 1 .58-.46l.68-.33 1.84 4.92v.08l2.59-1-3.07-8.2c.89-.4 1.77-.81 2.65-1.24l3.83 7.52v.08l2.46-1.25-3.77-7.57c.47-.24 1-.46 1.43-.71zm-43.1 9.23a2.23 2.23 0 0 1 -.27-.6 2.71 2.71 0 0 1 -.06-.74 1.9 1.9 0 0 1 .5-1.44 2.25 2.25 0 0 1 1.61-.53h.08a4.2 4.2 0 0 1 2.82 1 3.93 3.93 0 0 1 1.41 2c-2.05.13-4.06.25-6.09.31zm34.86-7.77a2.33 2.33 0 0 1 -.49-.3 3.67 3.67 0 0 1 -1-1.22 3 3 0 0 1 -.38-1.52 1.16 1.16 0 0 1 .67-1c.88-.44 1.92-.17 3.06.83a14 14 0 0 1 1.47 1.7c-1.07.51-2.2 1.02-3.33 1.51z" fill="#23376d" transform="translate(-155.76 -181.89)"/><path d="m87.48 190.85-.93-7.46-1.65-.69-3.75 9.03 1.57.66 2.45-5.89.94 7.29 1.7.71 3.75-9.03-1.57-.65z" fill="#23376d"/><path d="m99.03 189.4.45-1.59-6.48-1.85-2.69 9.4 6.65 1.9.46-1.58-4.89-1.4.73-2.56 4.39 1.26.46-1.59-4.39-1.25.59-2.09z" fill="#23376d"/><path d="m107.43 196.06-.6-6.99-2.16-.31-2.61 6.41-.39-6.85-1.86-.27.74 9.99 1.97.29 2.84-6.98.74 7.5 1.93.28 3.59-9.36-1.83-.27z" fill="#23376d"/><path d="m280 380.76a3.08 3.08 0 0 0 1.22-.88 4.31 4.31 0 0 0 .84-1.79 6.71 6.71 0 0 0 .11-2.1 7.6 7.6 0 0 0 -.48-2.28 4.14 4.14 0 0 0 -1-1.51 3 3 0 0 0 -1.43-.79 5.86 5.86 0 0 0 -1.74-.05l-3.35.26.77 9.75 3.44-.27a5.34 5.34 0 0 0 1.62-.34zm-3.35-1.18-.51-6.45.82-.07a7.94 7.94 0 0 1 1.51 0 1.78 1.78 0 0 1 .89.4 2.24 2.24 0 0 1 .59.9 6.12 6.12 0 0 1 .32 1.72 6.79 6.79 0 0 1 0 1.8 2 2 0 0 1 -.41 1 1.56 1.56 0 0 1 -.7.46 4.65 4.65 0 0 1 -1.1.18z" fill="#23376d" transform="translate(-155.76 -181.89)"/><path d="m133.77 187.65-6.62 1.29 1.88 9.6 6.79-1.33-.32-1.62-4.98.98-.51-2.61 4.48-.88-.32-1.62-4.48.88-.42-2.12 4.82-.95z" fill="#23376d"/><path d="m136.89 186.81-1.76.55 2.87 9.26 6.12-1.89-.49-1.57-4.36 1.34z" fill="#23376d"/><path d="m143.76 184.35-1.68.73 3.91 8.97 1.68-.74-1.71-3.92 3.3-1.43 1.71 3.92 1.68-.74-3.9-8.96-1.69.73 1.54 3.53-3.3 1.44z" fill="#23376d"/><path d="m308.04 362.28h1.84v9.78h-1.84z" fill="#23376d" transform="matrix(.88080811 -.4734734 .4734734 .88080811 -292.79 8.18)"/><path d="m317.3 276.93 1.43-.55a45.05 45.05 0 0 0 -19.53-23l-.76 1.33a43.46 43.46 0 0 1 18.86 22.22z" fill="#23376d" transform="translate(-155.76 -181.89)"/><path d="m312.34 277.66 1.42-.6a40.36 40.36 0 0 0 -15.76-18.56l-.81 1.32a38.77 38.77 0 0 1 15.15 17.84z" fill="#23376d" transform="translate(-155.76 -181.89)"/><path d="m306.09 277.07 1.37-.74a34.74 34.74 0 0 0 -10.84-12.11l-.87 1.28a33 33 0 0 1 10.34 11.57z" fill="#23376d" transform="translate(-155.76 -181.89)"/><path d="m244 254.47-.8-1.3a45 45 0 0 0 -18.8 23.58l1.45.51a43.54 43.54 0 0 1 18.15-22.79z" fill="#23376d" transform="translate(-155.76 -181.89)"/><path d="m229.39 277.28 1.44.56a38.81 38.81 0 0 1 14.61-18.32l-.85-1.29a40.31 40.31 0 0 0 -15.2 19.05z" fill="#23376d" transform="translate(-155.76 -181.89)"/><path d="m235.67 276.35 1.38.69a33.14 33.14 0 0 1 10-11.89l-.91-1.25a34.63 34.63 0 0 0 -10.47 12.45z" fill="#23376d" transform="translate(-155.76 -181.89)"/><path d="m41.61 157.7-.08.05 1.33 2.15 8.92-5.51.07-.05-1.33-2.15z" fill="#23376d"/><path d="m46.59 144.65-1.08-2.25-9.44 4.56-.08.04 1.02 2.12 6.08-2.93-4.04 7.06-.03.04 1.06 2.18 9.44-4.55.08-.04-1.03-2.13-5.93 2.87 3.93-6.93z" fill="#23376d"/><path d="m198.49 316.44a4.49 4.49 0 0 0 -1.3-1.36 4.55 4.55 0 0 0 -2.17-.67 6.08 6.08 0 0 0 -2.25.31 7 7 0 0 0 -2.27 1.09 4.76 4.76 0 0 0 -1.31 1.59 4.2 4.2 0 0 0 -.41 2 9.92 9.92 0 0 0 .46 2.2l1.29 4.19 10.11-3.09-1.32-4.31a8.4 8.4 0 0 0 -.83-1.95zm-6.85 6.37-.29-.93a12.27 12.27 0 0 1 -.46-1.85 2.07 2.07 0 0 1 .88-2 5.6 5.6 0 0 1 1.67-.76 6.65 6.65 0 0 1 1.78-.32h.09a2 2 0 0 1 1.09.28 2.25 2.25 0 0 1 .67.75 8.12 8.12 0 0 1 .5 1.31l.49 1.6z" fill="#23376d" transform="translate(-155.76 -181.89)"/><path d="m41.87 130.04-.48-2.48-10.3 1.99-.08.01.48 2.48 10.29-1.98z" fill="#23376d"/><path d="m196.86 309.13-.23-2.62v-.05l-2.43-.76-.39-4.52 2.19-1.18-.24-2.74-10.12 5.63.21 2.53v.06l10.8 3.65zm-8.31-5.19 3.4-1.77.25 2.9z" fill="#23376d" transform="translate(-155.76 -181.89)"/><path d="m40.16 114.87.15-2.35-6.57-.44 6.84-4.09.04-.02.16-2.49-10.46-.7h-.09l-.15 2.35 6.73.45-7 4.15-.04.02-.16 2.42 10.46.69z" fill="#23376d"/><path d="m191.31 273a2.06 2.06 0 0 1 1.34-.46h.15l.16-2.46v-.08h-.1a4.09 4.09 0 0 0 -2.21.64 5.28 5.28 0 0 0 -2.07 3.07 5.57 5.57 0 0 0 .31 4.26 5.44 5.44 0 0 0 3.52 2.59 6.71 6.71 0 0 0 1.77.26 4.7 4.7 0 0 0 2.43-.65 6.08 6.08 0 0 0 2.49-6.58 4.64 4.64 0 0 0 -2-2.42l-.07-.05-1.34 2.17.07.05a2.91 2.91 0 0 1 1.31 1.35 2.39 2.39 0 0 1 .07 1.63 2.62 2.62 0 0 1 -1.33 1.71 4 4 0 0 1 -2.85 0 3.71 3.71 0 0 1 -2.31-1.47 2.73 2.73 0 0 1 -.22-2.18 2.58 2.58 0 0 1 .88-1.38z" fill="#23376d" transform="translate(-155.76 -181.89)"/><path d="m203.06 266.19a5.91 5.91 0 0 0 .45-4.38 5.94 5.94 0 0 0 -7.29-3.39 6 6 0 0 0 -3.08 3.18 7 7 0 0 0 -.69 2.48 4.63 4.63 0 0 0 .21 1.79 5.07 5.07 0 0 0 .85 1.61 6.24 6.24 0 0 0 2.22 1.64 6 6 0 0 0 2.5.6 4.56 4.56 0 0 0 1.75-.35 6 6 0 0 0 3.08-3.18zm-1.79-.83a3.06 3.06 0 0 1 -1.76 1.67 3.5 3.5 0 0 1 -2.74-.3 3.54 3.54 0 0 1 -2-1.89 3.45 3.45 0 0 1 1.91-4.13 4.43 4.43 0 0 1 4.75 2.24 3.08 3.08 0 0 1 -.16 2.41z" fill="#23376d" transform="translate(-155.76 -181.89)"/><path d="m205 258.75a2.77 2.77 0 0 0 .49 0 3.73 3.73 0 0 0 1.54-.64 7.07 7.07 0 0 0 1.72-1.93 6.79 6.79 0 0 0 1-2.06 3.59 3.59 0 0 0 .06-1.65 2.81 2.81 0 0 0 -.71-1.35 12.42 12.42 0 0 0 -2.1-1.65l-4.6-3.11-1.41 2.1 4.84 3.26a10.12 10.12 0 0 1 1.39 1.07 1.33 1.33 0 0 1 .38.95 3.25 3.25 0 0 1 -1.68 2.44 1.61 1.61 0 0 1 -1.18 0 10.66 10.66 0 0 1 -1.48-.89l-4.74-3.2-1.41 2.1 4.67 3.15a11.55 11.55 0 0 0 2.34 1.29 2.69 2.69 0 0 0 .88.12z" fill="#23376d" transform="translate(-155.76 -181.89)"/><path d="m61.17 63.89 1.69-1.84-7.72-7.1-.06-.05-1.6 1.73 4.97 4.57-8.06-1.15-.04-.01-1.64 1.79 7.72 7.09.06.06 1.6-1.74-4.85-4.46 7.89 1.1z" fill="#23376d"/><path d="m220.36 241.09a6.15 6.15 0 0 0 5.43-4 4.63 4.63 0 0 0 -.24-3.12v-.08l-2.26 1h-.08v.08a2.84 2.84 0 0 1 .29 1.85 2.4 2.4 0 0 1 -.89 1.38 2.59 2.59 0 0 1 -2.06.63 4 4 0 0 1 -2.33-1.66 3.67 3.67 0 0 1 -1-2.53 2.77 2.77 0 0 1 1.08-1.91 2.58 2.58 0 0 1 1.49-.61 2 2 0 0 1 1.41.43h.07l1.61-2-.08-.06a4.06 4.06 0 0 0 -2.17-.75h-.1a5.35 5.35 0 0 0 -3.37 1.33 5.57 5.57 0 0 0 -2.2 3.65 5.38 5.38 0 0 0 1.34 4.28 5.14 5.14 0 0 0 3.65 2.11z" fill="#23376d" transform="translate(-155.76 -181.89)"/><path d="m225.66 225.53h2.53v10.57h-2.53z" fill="#23376d" transform="matrix(.83829013 -.5452244 .5452244 .83829013 -244.91 -20.84)"/><path d="m76.5 51.72 7.4-3.91-.86-1.62-.04-.08-5.17 2.73-3.96-7.49-.04-.08-2.15 1.14-.08.04 4.86 9.19z" fill="#23376d"/><path d="m244.77 226.3a5.2 5.2 0 0 0 2.3.51 7.58 7.58 0 0 0 2.13-.33 5.87 5.87 0 0 0 3.56-2.58 5.91 5.91 0 0 0 -2.3-7.69 5.94 5.94 0 0 0 -4.46-.21 7.37 7.37 0 0 0 -2.32 1.12 4.62 4.62 0 0 0 -1.19 1.36 5 5 0 0 0 -.64 1.7 6 6 0 0 0 .25 2.75 5.15 5.15 0 0 0 2.67 3.37zm-.08-6.92a3.07 3.07 0 0 1 1.93-1.48 3 3 0 0 1 2.42.17 3.51 3.51 0 0 1 1.56 2.25 3.61 3.61 0 0 1 -.08 2.79 3 3 0 0 1 -1.9 1.48 3.08 3.08 0 0 1 -2.41-.2 4.34 4.34 0 0 1 -1.52-5z" fill="#23376d" transform="translate(-155.76 -181.89)"/><path d="m106.79 32.95-.27-1.83-.02-.09-7.98 1.18-.09.01 1.53 10.37.01.09 2.42-.35.08-.02-.64-4.37 4.72-.69.09-.02-.27-1.82-.01-.09-4.81.71-.33-2.26 5.48-.81z" fill="#23376d"/><path d="m113.95 30.56-.6 10.47v.09l2.27.13h.08l.44-7.63 1.69 7.69.02.06 2.32.14h.07l2.59-7.51-.43 7.54-.01.09 2.27.13h.09l.59-10.46.01-.09-3.61-.21h-.06l-2.41 6.75-1.64-6.92-.02-.06-3.58-.2z" fill="#23376d"/><path d="m135.11 43.97.39-1.79.02-.09-6.36-1.36.56-2.6 5.63 1.21.08.01.39-1.79.02-.09-5.72-1.23.45-2.08 6.06 1.3.08.02.39-1.81.02-.08-8.53-1.83-.09-.02-2.2 10.25-.02.09 8.75 1.88z" fill="#23376d"/><path d="m303.68 222.33a4.53 4.53 0 0 0 -.46-2 4.18 4.18 0 0 0 -1.34-1.54 9.5 9.5 0 0 0 -2-1l-4-1.5h-.08l-3.65 9.83v.08l4.23 1.57a7.86 7.86 0 0 0 2 .52 3.77 3.77 0 0 0 .47 0 4 4 0 0 0 1.4-.22 4.74 4.74 0 0 0 1.85-1.32 6.37 6.37 0 0 0 1.12-2 7 7 0 0 0 .46-2.42zm-2.91 1.47a6.28 6.28 0 0 1 -.87 1.68 2.09 2.09 0 0 1 -.89.7 2.05 2.05 0 0 1 -1 .07 7 7 0 0 1 -1.35-.4l-1.56-.58 2.33-6.29.91.34a11.1 11.1 0 0 1 1.76.76 2.18 2.18 0 0 1 .82.8 2.13 2.13 0 0 1 .26 1.13 5.59 5.59 0 0 1 -.41 1.79z" fill="#23376d" transform="translate(-155.76 -181.89)"/><path d="m148.97 49.58 4.64-9.4.04-.08-2.19-1.08-.08-.04-4.63 9.4-.04.08 2.19 1.08z" fill="#23376d"/><path d="m310.31 234.87a5.6 5.6 0 0 0 3 1h.15a4.61 4.61 0 0 0 2.87-1.23l.07-.06-1.71-1.89-.06.06a3 3 0 0 1 -1.66.88 2.42 2.42 0 0 1 -1.59-.4 2.62 2.62 0 0 1 -1.27-1.75 4 4 0 0 1 .81-2.73 3.62 3.62 0 0 1 2.06-1.81 2.71 2.71 0 0 1 2.15.4 2.61 2.61 0 0 1 1.07 1.2 2.15 2.15 0 0 1 0 1.48v.08l2.4.88v-.09a4.21 4.21 0 0 0 0-2.31 5.29 5.29 0 0 0 -2.38-2.84 5.57 5.57 0 0 0 -4.17-.9 5.41 5.41 0 0 0 -3.47 2.66 5.16 5.16 0 0 0 -.8 4.14 5.4 5.4 0 0 0 2.53 3.23z" fill="#23376d" transform="translate(-155.76 -181.89)"/><path d="m321.63 243.31 2.09 1.79 3.28-11.1-1.93-1.66h-.05l-10.26 5-.12.05 2 1.75 2.36-1.24 3.45 2.95-.75 2.4zm-.82-6.36 3.4-1.74-1.21 3.64z" fill="#23376d" transform="translate(-155.76 -181.89)"/><path d="m168.29 63.62-.07.06 5.5 6.2.05.07 1.38-1.22.07-.06-3.88-4.37 6.35-5.62.06-.06-1.68-1.89z" fill="#23376d"/><path d="m344.07 254.7-2.56-4.33-9 5.33h-.08l1.29 2.18 3.73-2.21.2.33a3.92 3.92 0 0 1 .49 1.06 1.76 1.76 0 0 1 0 .79 14.65 14.65 0 0 1 -.68 1.83l-1.08 2.61 1.45 2.46.09.15 1.09-2.41a12.87 12.87 0 0 0 .78-2 5.15 5.15 0 0 0 .12-1.29 3.78 3.78 0 0 0 1.88 1.32 2.68 2.68 0 0 0 2.12-.33 2.79 2.79 0 0 0 1.19-1.31 2.68 2.68 0 0 0 .17-1.72 9.11 9.11 0 0 0 -1.2-2.46zm-1.07 2.73a1.07 1.07 0 0 1 -.53.64 1.18 1.18 0 0 1 -.74.18 1.11 1.11 0 0 1 -.67-.32 9.56 9.56 0 0 1 -1.16-1.73l-.85-1.42 2.12-1.26.83 1.48c.59 1 .79 1.36.84 1.48a1.45 1.45 0 0 1 .16.95z" fill="#23376d" transform="translate(-155.76 -181.89)"/><path d="m191.97 79.53-9.71 3.96-.08.03 3.38 8.28.03.08 1.71-.69.08-.04-2.46-6.02 2.46-1 2.18 5.33.03.08 1.7-.69.08-.04-2.21-5.41 1.97-.81 2.35 5.74.03.08 1.71-.69.08-.04-3.3-8.07z" fill="#23376d"/><path d="m352.24 274.23a3.2 3.2 0 0 0 -1.42-1.19 2.56 2.56 0 0 0 -1.61-.13 2.7 2.7 0 0 0 -1.83 1.6 6.72 6.72 0 0 0 -.36 2.86v1.93a2 2 0 0 1 -.22.89.8.8 0 0 1 -.5.35 1.16 1.16 0 0 1 -1-.3 2.77 2.77 0 0 1 -.81-1.51 2.71 2.71 0 0 1 0-1.71 2.32 2.32 0 0 1 1.22-1.14h.07l-.77-2.25v-.08h-.09a3.93 3.93 0 0 0 -2.28 2.06 5.62 5.62 0 0 0 -.06 3.57 7.28 7.28 0 0 0 1 2.39 3.32 3.32 0 0 0 1.54 1.28 3 3 0 0 0 1.13.22 2.72 2.72 0 0 0 .75-.07 2.84 2.84 0 0 0 1.53-.88 3.22 3.22 0 0 0 .74-1.54 12.88 12.88 0 0 0 .1-2.67 6.53 6.53 0 0 1 .15-2.22.66.66 0 0 1 1.1-.26 2.88 2.88 0 0 1 .73 1.42 2.48 2.48 0 0 1 0 1.48 1.64 1.64 0 0 1 -.91.86h-.07l.71 2.42h.08a3 3 0 0 0 2-1.73 5.46 5.46 0 0 0 0-3.47 6.63 6.63 0 0 0 -.92-2.18z" fill="#23376d" transform="translate(-155.76 -181.89)"/><path d="m198.87 102.06-.01-.09-10.42 1.09-.09.01.93 8.9.01.08 1.91-.2-.67-6.47 2.64-.27.6 5.72.01.09 1.91-.2-.61-5.81 2.12-.22.65 6.16.01.08 1.92-.2z" fill="#23376d"/><path d="m355.4 301.6.11-2.6-10.25-5-.12-.05-.11 2.68 2.32 1.06-.19 4.53-2.35.9h-.05l-.11 2.61v.14l10.71-4.28zm-6.28-.11.12-2.92 3.48 1.59z" fill="#23376d" transform="translate(-155.76 -181.89)"/><path d="m347.86 311.13a1.7 1.7 0 0 1 -.53.58 14.57 14.57 0 0 1 -1.73.91l-2.55 1.23-.55 2.8v.17l2.42-1.07a12.33 12.33 0 0 0 1.93-1 5.48 5.48 0 0 0 1-.88 3.82 3.82 0 0 0 .52 2.24 2.68 2.68 0 0 0 1.8 1.16 2.6 2.6 0 0 0 .61.07 2.87 2.87 0 0 0 1.15-.25 2.74 2.74 0 0 0 1.28-1.17 9.43 9.43 0 0 0 .81-2.64l1-4.85v-.09l-10.29-2h-.09l-.47 2.39v.08l4.25.84-.07.38a4.18 4.18 0 0 1 -.49 1.1zm1.89.48.32-1.62 2.42.48-.34 1.71c-.18.93-.3 1.49-.36 1.66a1.41 1.41 0 0 1 -.54.75 1.08 1.08 0 0 1 -.82.13 1.15 1.15 0 0 1 -.68-.36 1.19 1.19 0 0 1 -.28-.68 9 9 0 0 1 .28-2.07z" fill="#23376d" transform="translate(-155.76 -181.89)"/><path d="m350.58 325.72a5.58 5.58 0 0 0 0-4.27 5.42 5.42 0 0 0 -3.33-2.84 5.19 5.19 0 0 0 -4.21.09 5.41 5.41 0 0 0 -2.67 3.15 5.55 5.55 0 0 0 -.29 3.24 4.71 4.71 0 0 0 1.81 2.55l.07.05 1.44-2 .05-.07-.07-.05a3 3 0 0 1 -1.21-1.44 2.5 2.5 0 0 1 0-1.64 2.7 2.7 0 0 1 1.45-1.61 4 4 0 0 1 2.85.22 3.72 3.72 0 0 1 2.2 1.63 2.72 2.72 0 0 1 .05 2.19 2.57 2.57 0 0 1 -.95 1.3 2.16 2.16 0 0 1 -1.43.35h-.09l-.35 2.53h.34a4 4 0 0 0 2-.48 5.38 5.38 0 0 0 2.34-2.9z" fill="#23376d" transform="translate(-155.76 -181.89)"/><path d="m182.54 145.77-1.17 2.14-.04.07 3.98 2.19-2.13 3.89-3.91-2.15-.07-.04-1.18 2.14-.03.08 9.19 5.03.08.05 1.17-2.14.04-.08-3.59-1.96 2.13-3.89 3.51 1.92.08.04 1.17-2.13.04-.08-9.19-5.04z" fill="#23376d"/><path d="m322.65 308.15c-1.75-2.47-6.62-3.18-14.5-2.1l-.45.09h-.56v.13c-1.75.47-5.12 1.77-4.94 4.72a1.06 1.06 0 0 0 0 .19v5.48a83.37 83.37 0 0 1 -59.77.33v-5.81c0-.06 0-.12 0-.19.19-3.15-3.67-4.42-5.28-4.81v-.07h-.28l-.41-.08c-7.85-1.07-12.72-.37-14.47 2.1a4.17 4.17 0 0 0 -.29 4l5.95 22.88a.9.9 0 0 0 .88.68h3a.93.93 0 0 0 .65-.27.9.9 0 0 0 .26-.64v-1.68h1.77v4.9a1.67 1.67 0 0 0 1.05 1.56 96.25 96.25 0 0 0 36.84 7.31c20.16 0 34.54-6.25 36.85-7.31a1.7 1.7 0 0 0 1-1.53v-4.9h2.27v1.68a.9.9 0 0 0 .26.64.91.91 0 0 0 .65.27h3a.91.91 0 0 0 .88-.68l5.95-22.88a4.17 4.17 0 0 0 -.31-4.01zm-99.1 1c.57-.79 2.23-1.88 7-1.82a.56.56 0 0 0 -.07.16 5.24 5.24 0 0 1 -2.54 3.52 6.64 6.64 0 0 1 -4.64.1 2.2 2.2 0 0 1 .25-1.92zm5.75 24.74-5.39-20.76a7.72 7.72 0 0 0 4.84-.49 5.83 5.83 0 0 0 1.74-1.3l.18 22.55zm77.87-25.76.06 4.2a9.3 9.3 0 0 0 -3.17-1.3 1.54 1.54 0 0 1 -.05-.17c-.08-1.43 1.82-2.27 3.16-2.69zm-66.47 2.77v.17a9.2 9.2 0 0 0 -3.33 1.4l-.07-4.39c1.41.42 3.48 1.33 3.4 2.82zm-5.2 3.46a1.33 1.33 0 0 0 -.44.14 1.66 1.66 0 0 0 -.81 1.44v15.4h-1.79l-.18-23.58a.87.87 0 0 0 -.06-.32c1 .06 2 .15 3.21.3l.1 6.58zm.57 23.67-.06-21.9c6 3.07 35.76 16.47 72.13.09l.08 21.71c-3.48 1.61-35.06 15.27-72.15.07zm76.36-30.27-.18 23.58h-1.81l-.07-15.07a.91.91 0 0 0 -.54-.82 1.48 1.48 0 0 0 -.33-.53 7.5 7.5 0 0 0 -.42-.74l-.1-6.4c1.3-.17 2.47-.28 3.51-.34a.87.87 0 0 0 -.06.32zm3 26.17h-1.43l.18-22.55a5.83 5.83 0 0 0 1.74 1.3 7.72 7.72 0 0 0 4.84.49zm6-22.78a6.64 6.64 0 0 1 -4.64-.1 5.24 5.24 0 0 1 -2.54-3.52.69.69 0 0 0 -.07-.15c4.79-.07 6.45 1 7 1.81a2.21 2.21 0 0 1 .21 1.96z" fill="#23376d" transform="translate(-155.76 -181.89)"/><path d="m247.66 327.94.39.13.34.05a1.18 1.18 0 0 0 .39-.06l-.5 1.71.93.26 1.34-4.62c.92.26 1.91.52 3 .78l-.27 1.12a.9.9 0 0 1 -.13.28.46.46 0 0 1 -.33.22h-.2a.51.51 0 0 1 -.31-.33l-.25-.8-.4-.1-.49.2.12.41.12.42.18.55.2.54a15.61 15.61 0 0 0 .67 1.53 2.38 2.38 0 0 0 .43.68l.41.1.45-.25-.17-.28-.38-.7-.2-.42-.45-1.15.33.09a1.15 1.15 0 0 0 .81-.09 1 1 0 0 0 .52-.65l.28-1.17 1.24.27-.94 4.66.94.19.94-4.67.7.14a1.36 1.36 0 0 1 .3-.41l-.95-.19-.28-.85-.21-.51a3.48 3.48 0 0 0 -.62-1 1.31 1.31 0 0 0 -.72-.43l-.4-.07a1.45 1.45 0 0 0 -.51 0 1.31 1.31 0 0 0 -.79.63 1.24 1.24 0 0 0 -.19.48v.23.24l.06.23.12.25a61.92 61.92 0 0 1 -7-2.15l-.16.44 1.24.44-.53 1.82a1.81 1.81 0 0 0 -.06.57 3.65 3.65 0 0 0 .16.53 1.49 1.49 0 0 0 .83.71zm6.29-3.18a1.71 1.71 0 0 1 .05-.18s.05-.09.1-.19a1 1 0 0 1 .16-.2l.16-.11.17-.06a1.9 1.9 0 0 1 .56.67 4.22 4.22 0 0 1 .64 1.53c-.56-.11-1.09-.23-1.62-.35l-.1-.23-.08-.28c0-.15 0-.26-.05-.34a.78.78 0 0 1 .06-.26zm-6.39 1.74.53-1.85 1.54.49-.6 2.05-.22.16-.17.1a1.62 1.62 0 0 1 -.36.13h-.16-.12l-.18-.13-.13-.18a.88.88 0 0 1 -.13-.77z" fill="#23376d" transform="translate(-155.76 -181.89)"/><path d="m296.52 333.56-.15-.44c-1.49.52-3.09 1-4.77 1.39l-.26-.18-.36-.25-.84-.48a5.29 5.29 0 0 0 -1.81-.64 2.24 2.24 0 0 0 -.85 0l-.4.08a1.51 1.51 0 0 0 -1.32 1.21 1.22 1.22 0 0 0 0 .6v.16l.11.27.11.24.1.1a83.18 83.18 0 0 1 -9.11.95l.2.46 1.24-.09h.16l.16 2-1.7.07-.07-1.39a.79.79 0 0 0 -.32-.66 1 1 0 0 0 -.71-.22h-.42a1.17 1.17 0 0 0 -.73.28.82.82 0 0 0 -.27.73v.13l.05.15v.06l.05.07h.51.42l-.06-.09v-.08l-.06-.15v-.14-.22l.11-.17.08-.06h.08l.13.07.12.15a.48.48 0 0 1 0 .18l.07 1.45h-.62-.08l-.09.06-.08.08v.09a.85.85 0 0 0 .14.27l.42.45a2.63 2.63 0 0 0 .47.39.46.46 0 0 0 .28.11h.41.11l.07-.08v-.06-.94l1.72-.08.21 2.54 1-.08-.41-4.92h.1c1.34-.11 2.64-.25 3.93-.41l.13 1a2.14 2.14 0 0 0 -1.8.19l-.08.06a2.36 2.36 0 0 0 -.31.34 1.55 1.55 0 0 0 -.26 1.07 1.19 1.19 0 0 0 .19.54 1.47 1.47 0 0 0 .43.43 1.59 1.59 0 0 0 .2.11 2.11 2.11 0 0 0 1.91-.26h.06l.17 1.3.95-.12-.64-4.86 1.58-.23.86 4.77.95-.17-.86-4.76a62.39 62.39 0 0 0 7.45-1.71l.24.86-2.19.62-.18.06-.18.12a1 1 0 0 0 -.18.32l-2.57.57-.4.09h-.12l-.08.05a.32.32 0 0 0 -.1.33 2.18 2.18 0 0 0 .35.4 1.25 1.25 0 0 0 .24.18l.46.29a.37.37 0 0 0 .24.07l.41-.08.15-.05a.1.1 0 0 0 0-.11v-.1l-.2-.89 1.51-.33a1.46 1.46 0 0 0 0 .35 2.82 2.82 0 0 0 .77 1.26l.22.21a2.12 2.12 0 0 0 .24.19l.53.35.36.19h.12l.4-.11.25-.45c-.23.06-.64-.17-1.21-.69a1.84 1.84 0 0 1 -.28-.29 2.54 2.54 0 0 1 -.52-.95v-.26a.49.49 0 0 1 .24-.44.83.83 0 0 1 .3-.14l1.46-.41.92 3.32.93-.25-1.28-4.65zm-14 6a1.24 1.24 0 0 1 -.33-.71 1.31 1.31 0 0 1 0-.39 1.55 1.55 0 0 1 .13-.33.56.56 0 0 1 .4-.32 2.18 2.18 0 0 1 1 0v.11.23l.12.92c-.52 1-1.13.61-1.29.49zm4.45-4.1-.08-.11-.1-.18-.09-.23-.05-.2a1.55 1.55 0 0 1 0-.49.91.91 0 0 1 .4-.64.55.55 0 0 1 .27-.17 3.43 3.43 0 0 1 .64.07 3.08 3.08 0 0 1 .66.19l.69.3a1.52 1.52 0 0 1 .27.13l.13.07.29.18.29.2.27.16c-1.14.26-2.33.51-3.56.72z" fill="#23376d" transform="translate(-155.76 -181.89)"/><path d="m297.32 323.48c-.53.19-1.13.41-1.8.63l-.23-.14-.87-.43a5.35 5.35 0 0 0 -1.84-.54 2.3 2.3 0 0 0 -.85 0l-.4.11a1.52 1.52 0 0 0 -1.25 1.27 1.37 1.37 0 0 0 0 .61l.05.15.12.26.09.18-1.57.37-2.5-2-.4.09-.27.47 2.41 1.58c-2.09.45-4.41.84-6.94 1.15l-.06-.06-.31-.3-.78-.58a5.15 5.15 0 0 0 -1.71-.88 2.28 2.28 0 0 0 -.83-.13h-.42a1.51 1.51 0 0 0 -1.46 1 1.23 1.23 0 0 0 -.08.59v.17l.07.28.08.25v.06c-1.27.06-2.57.1-3.92.1a78.27 78.27 0 0 1 -11.52-.84 1.41 1.41 0 0 1 .16.49c.52.08 1.06.14 1.6.21l.14.23a1.5 1.5 0 0 1 .18.75.86.86 0 0 1 -.34.65l-.21.1h-.22-.09-.05l.08-.48-.41-.06-.17.08h-.2-.31-.24a.94.94 0 0 1 -.28 0 .84.84 0 0 0 -.24-.06l-.23-.08h-.09l-.09-.06.24-.1.18-.11.19-.15a1 1 0 0 0 .28-.5.92.92 0 0 0 0-.44 1 1 0 0 0 -.55-.6 1 1 0 0 0 -.42-.15l-.41-.06a1.75 1.75 0 0 0 -.39 0 1 1 0 0 0 -.41.14.8.8 0 0 0 -.41.61v.32a1.14 1.14 0 0 0 .08.33l.15.35a1.62 1.62 0 0 0 .18.2l-.3.13-.22.12a2.19 2.19 0 0 0 -.41.38.82.82 0 0 0 -.2.43 1.61 1.61 0 0 0 0 .58 1.33 1.33 0 0 0 .23.48 1.39 1.39 0 0 0 .41.35 3.69 3.69 0 0 0 .58.18l.41.08h.12v.08.06.1l.1.24.17.24.08.09.41.07.49-.24-.19-.19-.12-.15-.12-.19-.08-.22h.18a.32.32 0 0 0 .14-.08l.09-.12.06-.17v-.21l-.08-.19a.43.43 0 0 0 -.36-.24l-.41-.06h-.2a.3.3 0 0 0 -.16.07l-.12.15-.07.24v.16l-.24-.08-.18-.13a.66.66 0 0 1 -.22-.3.94.94 0 0 1 0-.45 1 1 0 0 1 .5-.71l.13-.07.12-.07.13.07.6.23.38.08.41.08.4.06h.32.24a1.81 1.81 0 0 0 .43 1.31 1.85 1.85 0 0 0 .56.45 2.36 2.36 0 0 0 .75.2l.41.06h.44a2.58 2.58 0 0 0 .42-.11l-.15 1.32 1 .11.55-4.81c1.15.1 2.33.17 3.55.21l-.1 2.5a.64.64 0 0 1 -.25.41l-.14.13-.21.14a.53.53 0 0 1 -.21.06.77.77 0 0 1 -.25-.1l-.19-.18a1.14 1.14 0 0 1 -.2-.71 1.11 1.11 0 0 1 .28-.71.87.87 0 0 1 .47-.28h.06.06.05.1.42v-.44l-.21-.08a.64.64 0 0 1 -.18-.06h-.58a1.28 1.28 0 0 0 -.29 0 1.49 1.49 0 0 0 -.74.35 1.29 1.29 0 0 0 -.46 1 1.49 1.49 0 0 0 .08.57 1.27 1.27 0 0 0 .33.47 1.54 1.54 0 0 0 1 .44h.42.28l.27-.08v1.26h.95l.09-2.22a1.77 1.77 0 0 1 .09-.39 2 2 0 0 1 .27-.4 1 1 0 0 1 .6-.4l.2.09a.94.94 0 0 1 .25.27 1.55 1.55 0 0 1 .08.51 1.92 1.92 0 0 1 -.51 1.06 1.85 1.85 0 0 1 -.44.46h-.07l.43.35h.42l.32-.33.24-.27a2 2 0 0 0 .59-1.24 1.26 1.26 0 0 0 -.09-.53 1.37 1.37 0 0 0 -.72-.74 1.2 1.2 0 0 0 -.55-.13h-.62l-.21.06-.21.08v-1.14h1.92 1.57l.08 4.88h1l-.07-4.9 1.39-.05.22 4.9h1l-.22-4.91c1.08-.07 2.12-.16 3.13-.26l.11 1.32a.69.69 0 0 1 0 .32.44.44 0 0 1 -.24.31l-.18.08a.54.54 0 0 1 -.41-.22l-.48-.68h-.41l-.4.35.24.35.25.35.34.48.36.44a15.38 15.38 0 0 0 1.11 1.25 2.79 2.79 0 0 0 .63.51h.41l.36-.38-.25-.21-.59-.54-.32-.34-.78-.95h.33a1.18 1.18 0 0 0 .75-.34.93.93 0 0 0 .28-.78l-.11-1.39 1.22-.14.25 1.88a1.6 1.6 0 0 0 .16.48 1.3 1.3 0 0 0 .78.57 1.43 1.43 0 0 0 .51 0h.42a1.13 1.13 0 0 0 .85-.49 1.24 1.24 0 0 0 .21-.76.63.63 0 0 0 0-.21l-.27-1.86.94-.16.86 4.91.95-.17-.85-4.85v-.08l1.28-.26 1 4.9.94-.19-1-4.92 1.53-.36 1.17 4.9.94-.22-1.18-4.92c1.37-.36 2.59-.72 3.66-1.07l.3 1.05-2.1.62-.17.08-.13.12a.49.49 0 0 0 -.06.17v.19l.09.18a1 1 0 0 1 .09.17 3 3 0 0 0 .4.35l.17.13.28.16-.17.31a1.3 1.3 0 0 0 -.13.3 1 1 0 0 0 0 .53c.18.62.74.95 1.68 1h.56a2.44 2.44 0 0 0 .68-.07.31.31 0 0 0 .17-.09l.4-.12.08-.43s0 0-.09.05l-.24.06h-.9a1.82 1.82 0 0 1 -.95-.17.78.78 0 0 1 -.43-.48.91.91 0 0 1 .38-1.07.43.43 0 0 1 .17-.12 1.11 1.11 0 0 1 .23-.08l.31-.05h.25a.56.56 0 0 1 .42.42.64.64 0 0 1 -.07.45h-.05l.47.17.4-.1.06-.07.16-.22a.62.62 0 0 0 0-.65 1 1 0 0 0 -.23-.42 1.18 1.18 0 0 0 -.9-.28 1.85 1.85 0 0 0 -.64.1l-.39.12-.23.09-.28.13h-.06l-.05-.05-.17-.12-.08-.06-.06-.07a.4.4 0 0 1 -.19-.17l-.09-.16v-.1a.15.15 0 0 1 .11-.08l2.37-.69-.44-1.52c.53-.18 1-.35 1.46-.52zm-38.61 4.83h-.05a1 1 0 0 1 -.14-.65l.08-.21a.48.48 0 0 1 .15-.14l.1-.05h.11l.14.08a.44.44 0 0 1 .11.4.8.8 0 0 1 -.5.57zm5.36 2.1-.26.29a.53.53 0 0 1 -.15.12 1 1 0 0 1 -.19.12l-.3.12a1.37 1.37 0 0 1 -.32.05 1.3 1.3 0 0 1 -.84-.84v-.07-.08-.09-.11l.36-.05.27-.07a1.16 1.16 0 0 0 .72-1v-.33l-.12-.42-.07-.16v-.08c.43.05.88.08 1.32.12zm12.49-2.72-.07-.19-.07-.24v-.2a1.84 1.84 0 0 1 .05-.49 1 1 0 0 1 .49-.58.52.52 0 0 1 .29-.13 3.48 3.48 0 0 1 .63.15 3.39 3.39 0 0 1 .63.28l.64.38.25.17.12.09.26.21.26.24.08.06c-1.12.08-2.35.18-3.56.25zm7.51 2.19a.43.43 0 0 1 -.32.29.47.47 0 0 1 -.19-.06l-.15-.12a1 1 0 0 1 -.27-.59l-.25-1.88 1-.14.24 1.85v.35a1.92 1.92 0 0 1 -.06.3zm7.18-4.5-.05-.09-.11-.22-.06-.2a1.72 1.72 0 0 1 0-.49.93.93 0 0 1 .36-.66.71.71 0 0 1 .27-.18 3.79 3.79 0 0 1 .64 0 3.52 3.52 0 0 1 .67.15l.7.26.29.12.13.06.29.16.19.12c-1.02.34-2.11.66-3.32.97z" fill="#23376d" transform="translate(-155.76 -181.89)"/><path d="m252.68 339.88a.82.82 0 0 0 -.41-.18l-.4-.08a1.54 1.54 0 0 0 -.42 0 1.6 1.6 0 0 0 -.46.06l-.3.1-.14.08.31.44.42.1.27-.17a.47.47 0 0 1 .17-.07h.17l.12.09.08.13.1.23a1.53 1.53 0 0 1 0 .27.73.73 0 0 1 -.15.32 1 1 0 0 1 -.64.29 1.12 1.12 0 0 1 -.32 0 3.58 3.58 0 0 1 -.74-.47l-.27-.23-.24-.26-.31-.36-.41-.09-.44.36a1.92 1.92 0 0 0 .36.4 3.71 3.71 0 0 0 .28.25l.36.28a3.21 3.21 0 0 0 1.07.53l.42.09a2.36 2.36 0 0 0 .6.05c.75 0 1.2-.34 1.33-.94a1.11 1.11 0 0 0 0-.48.92.92 0 0 0 -.41-.74z" fill="#23376d" transform="translate(-155.76 -181.89)"/><path d="m247 333.57c1 .34 2 .65 3.11.95l-.56 2.09a.68.68 0 0 1 -.33.35l-.17.1-.24.08a.48.48 0 0 1 -.22 0 .83.83 0 0 1 -.21-.16l-.15-.22a1.13 1.13 0 0 1 0-.73 1 1 0 0 1 .43-.63.91.91 0 0 1 .52-.18h.06.05l.09.07.4.11.12-.43-.19-.12a.7.7 0 0 1 -.16-.1h-.16l-.41-.1a1 1 0 0 0 -.28 0 1.44 1.44 0 0 0 -.8.18 1.23 1.23 0 0 0 -.66.85 1.28 1.28 0 0 0 -.05.57 1.13 1.13 0 0 0 .22.54 1.54 1.54 0 0 0 .9.65l.4.12.27.05a1.52 1.52 0 0 0 .29 0l-.33 1.22.92.25.58-2.14a1 1 0 0 1 .17-.36 1.83 1.83 0 0 1 .35-.34 1.06 1.06 0 0 1 .67-.26l.18.13a1.07 1.07 0 0 1 .18.32 1.41 1.41 0 0 1 -.76 1.44 1.65 1.65 0 0 1 -.54.35h-.07l.35.44.4.12.39-.25.29-.21a2.14 2.14 0 0 0 .85-1.08 1.39 1.39 0 0 0 0-.54 1.32 1.32 0 0 0 -.53-.88 1.22 1.22 0 0 0 -.51-.25l-.41-.1h-.2-.22-.22l.2-.77q2.15.56 4.47 1a1 1 0 0 0 -.4.58 1 1 0 0 0 0 .42 1.39 1.39 0 0 0 .2.43 1.15 1.15 0 0 0 .76.45l.4.09h.25l.29-.06v.06.05l-.22.24-.29.2-.36.15a1.88 1.88 0 0 1 -.36.07h-.23l-.27-.33-.41-.08-.43.28 2 2.55.41.08.43-.28-1.44-1.6a1.84 1.84 0 0 0 1.95-.85 1.74 1.74 0 0 0 .28-.67v-.33-.33l-.1-.33a1.46 1.46 0 0 0 -.18-.35l1.63.22-.77 4.94.95.15.78-5c1.82.22 3.7.38 5.61.49l-.17 1.62h-.24-.26l-.25.06-.13.06-.15.07-.09-.08-.11-.09a1.42 1.42 0 0 0 -.45-.28 1.51 1.51 0 0 0 -.51-.14h-.41a1.58 1.58 0 0 0 -1.14.29 1.31 1.31 0 0 0 -.52 1 2 2 0 0 0 .48 1.46c.51.66.94 1 1.31 1h.41l.3-.41-.5-.3-.34-.26a2 2 0 0 1 -.6-.7 1.3 1.3 0 0 1 -.15-.73.85.85 0 0 1 .11-.35l.09-.17.16-.18a.77.77 0 0 1 .49-.22l.22.09.24.13a1.38 1.38 0 0 1 .29.23c.08.07.13.13.13.18l-.08.14-.21.29-.09.14v.12l.42.3.41.05.11-.23.18-.28.18-.24.2-.18.24-.17.25-.12-.31 3 .95.1.53-5.21c.54 0 1.08 0 1.63.06l-.23 5.23h1l.23-5.24h1.41v-.46c-8.9-.08-17.27-1.33-23.72-3.56-.14.31-.21.46-.27.61zm9.06 2.9.09-.23a.69.69 0 0 1 .17-.17.28.28 0 0 1 .15-.08h.15a.89.89 0 0 1 .42.46.74.74 0 0 1 0 .18l.05.23-.09.14-.1.1-.24.12-.24.05-.15-.1-.11-.15a.64.64 0 0 1 -.1-.55z" fill="#23376d" transform="translate(-155.76 -181.89)"/><path d="m247.53 311.11a1.29 1.29 0 0 0 .69.2 1.44 1.44 0 0 0 .94-.37h.08l-.3.41a.89.89 0 0 0 -.16.76.6.6 0 0 0 .19.3 1.14 1.14 0 0 0 0 .45 1.19 1.19 0 0 0 .7.77 1.43 1.43 0 0 0 .62.12 1.94 1.94 0 0 0 1-.32.78.78 0 0 0 .21 0 1.16 1.16 0 0 0 .87-.44l-.08.2a1.1 1.1 0 0 0 0 .89.93.93 0 0 0 .41.42 1.64 1.64 0 0 0 .1.49 1.7 1.7 0 0 0 1 .92 1.86 1.86 0 0 0 .61.1 2 2 0 0 0 1.31-.51h.08a1.16 1.16 0 0 0 .81-.39 1.24 1.24 0 0 0 .17.69 1.18 1.18 0 0 0 .29.3 1.87 1.87 0 0 0 .28.92 1.93 1.93 0 0 0 1.34.87h.37a2.29 2.29 0 0 0 1.92-1.07 1.35 1.35 0 0 0 .45-.11 1.52 1.52 0 0 0 .27.61 1.44 1.44 0 0 0 .65.45 2 2 0 0 0 .37.74 2.73 2.73 0 0 0 2 1h.22a3 3 0 0 0 2.55-1.37 1.64 1.64 0 0 0 .75-.29 1.84 1.84 0 0 0 .3.48 1.63 1.63 0 0 0 1 .46 2.38 2.38 0 0 0 .35.54 2.85 2.85 0 0 0 2.07.86 2.89 2.89 0 0 0 2.07-.86 2.8 2.8 0 0 0 .36-.56 1.71 1.71 0 0 0 .88-.44 1.75 1.75 0 0 0 .37-.61 1.7 1.7 0 0 0 .77.28 3 3 0 0 0 2.66 1.52h.05a2.76 2.76 0 0 0 2-.9 2.18 2.18 0 0 0 .47-.87 1.38 1.38 0 0 0 .44-.32 1.42 1.42 0 0 0 .3-.6 1.2 1.2 0 0 0 .49.14 2.25 2.25 0 0 0 2 1.32h.25a2 2 0 0 0 1.42-.81 1.94 1.94 0 0 0 .33-1.12.91.91 0 0 0 .23-.21 1.23 1.23 0 0 0 .21-.7 1.17 1.17 0 0 0 .85.45 2 2 0 0 0 1.43.62 1.86 1.86 0 0 0 .52-.07 1.73 1.73 0 0 0 1.11-.89 1.68 1.68 0 0 0 .15-.53 1 1 0 0 0 .41-.4 1.12 1.12 0 0 0 0-.88l-.09-.22a1.22 1.22 0 0 0 .93.5 1.12 1.12 0 0 0 .31-.05 2 2 0 0 0 1.12.42 1.49 1.49 0 0 0 .55-.1 1.21 1.21 0 0 0 .76-.75 1.24 1.24 0 0 0 0-.69v-.06a.9.9 0 0 0 -.12-.77l-.28-.42h.11a1.47 1.47 0 0 0 1 .41 1.34 1.34 0 0 0 .65-.17.94.94 0 0 0 .47-.68 1 1 0 0 0 -.23-.75s.06-.05.07-.09a.71.71 0 0 0 -.2-.59l-.95-1a1.17 1.17 0 0 0 .32-.72c0-.61-.62-1.19-1.74-1.72-2.56-.91-7.39-1.76-14-2.17l-1.87-11.13a4.06 4.06 0 0 0 2-1.43 8.29 8.29 0 0 0 1.15-5.37h.19a3.71 3.71 0 0 0 3.07-1.29c2-2.54 0-7.76-.19-8.35l-.32-.81-.71.51c-4.56 3.28-4.39 6.74-3.93 8.44a6.27 6.27 0 0 0 -2.25.67l-.82-10a2 2 0 0 0 -.62-1.31 4.57 4.57 0 0 0 .59-.57l.3-.22a14.64 14.64 0 0 0 5.1-13.36l-.2-1.56-1.15 1.06a41.16 41.16 0 0 0 -4.58 5.06l-.26-8a1.45 1.45 0 0 0 -.61-1.16c-.16-.11-.31-.16-.46-.26a2.6 2.6 0 0 0 1.11-1.33 2.88 2.88 0 0 0 1.82-.71c2.27-2 1.25-7.54 1.13-8.16l-.21-1.09-.93.61a9.9 9.9 0 0 0 -2.91 2.79 15.57 15.57 0 0 0 -2.64-5.75l-.57-.76-.6.73a11.8 11.8 0 0 0 -3 5.84 9.89 9.89 0 0 0 -3-2.85l-.92-.61-.22 1.09c-.12.62-1.14 6.14 1.13 8.16a2.78 2.78 0 0 0 1.54.66 2.47 2.47 0 0 0 1 1.32 8.94 8.94 0 0 0 -.82.54c-.32.13-.55.52-.81 8.42a40.65 40.65 0 0 0 -4.47-4.92l-1.16-1.07-.19 1.56a14.62 14.62 0 0 0 5.15 13.48l.27.21a3.83 3.83 0 0 0 .82.9 5.3 5.3 0 0 0 -.4.38c-.41.21-.74 1.16-1.4 10.65a6 6 0 0 0 -2.52-.81c.46-1.7.64-5.16-3.93-8.45l-.71-.5-.32.8c-.23.59-2.22 5.81-.19 8.35a3.72 3.72 0 0 0 3.07 1.3h.19c-.1 1.32-.09 3.72 1.15 5.38a4.1 4.1 0 0 0 1.92 1.41c-.4 1.62-1 6-1.86 11.8a54.11 54.11 0 0 0 -10.72 1.78c-1.39.58-2.17 1.22-2.17 1.91l-.93.91a.69.69 0 0 0 -.23.57s.05.06.06.1a1 1 0 0 0 -.27.74 1 1 0 0 0 .43.68zm38.53 6.09a1.43 1.43 0 0 1 -1 .56 1.63 1.63 0 0 1 -1.79-1.33c-.06-.36.29-.85 1-1.35a.62.62 0 0 1 .36-.12.41.41 0 0 1 .19 0c.86.33 1.42.76 1.49 1.13a1.35 1.35 0 0 1 -.25 1.11zm4.7-1.82a1.22 1.22 0 0 1 -.76.6 1.43 1.43 0 0 1 -1.71-.87c-.1-.29.15-.76.66-1.27a.4.4 0 0 1 .38-.12c.8.17 1.35.46 1.47.77a1.1 1.1 0 0 1 -.04.89zm4.19-1.93a.68.68 0 0 1 -.44.42 1.37 1.37 0 0 1 -1.53-.57c-.15-.25.06-.63.19-.84a.44.44 0 0 1 .42-.2 1.87 1.87 0 0 1 1.24.5.8.8 0 0 1 .17.69zm1.83-2.3a.41.41 0 0 1 -.21.29.86.86 0 0 1 -1-.19.38.38 0 0 1 -.09-.33.59.59 0 0 1 .17-.37 1 1 0 0 1 1 .2.48.48 0 0 1 .13.4zm-1.17-2 .84.9a1.44 1.44 0 0 0 -1.13.05 1.11 1.11 0 0 0 -.41.75 1.48 1.48 0 0 0 0 .21s-.06 0-.08-.05l-.87-1a6.62 6.62 0 0 0 1.65-.86zm-2.17 1.1.33.37.9 1.37a4.34 4.34 0 0 0 -1-.27 1 1 0 0 0 -.94.44 1.31 1.31 0 0 0 -.21 1.37.61.61 0 0 1 -.36-.27l-1.28-2.1a.26.26 0 0 1 0-.17 25.44 25.44 0 0 0 2.56-.74zm-6.73 1.61a.47.47 0 0 1 .19-.15q1.74-.25 3.21-.57a.76.76 0 0 1 .18.22l1 2.68v.21c-.26-.62-1.15-.94-1.86-1.09a1 1 0 0 0 -.9.27 2.19 2.19 0 0 0 -.81 1.72c-.05-.06-.12-.1-.14-.18l-.92-2.74a.47.47 0 0 1 .05-.37zm-4.87.43c1.4-.12 2.74-.26 4-.42a.64.64 0 0 1 .14.22l.68 3.26s0 .07 0 .12a3.83 3.83 0 0 0 -1.61-1.05 1.17 1.17 0 0 0 -1.15.17 2.6 2.6 0 0 0 -1.18 1.7.71.71 0 0 1 -.4-.5l-.5-3.29a.5.5 0 0 1 .02-.21zm1.92-34.29c.55 1.76 1.18 4.77.09 6.14a2.82 2.82 0 0 1 -2.64.75c-.36-.89-1.14-3.89 2.55-6.89zm-6.18-31.55c.23 2 .17 4.67-.85 5.58a1.36 1.36 0 0 1 -1 .34 2.73 2.73 0 0 0 -.73-.8 6.28 6.28 0 0 1 2.58-5.16zm-17 38a2.77 2.77 0 0 1 -2.63-.74c-1.1-1.37-.47-4.39.08-6.15 3.73 3.01 2.97 5.94 2.56 6.84zm-9.17 28.26a1.35 1.35 0 0 1 -1.53.5.66.66 0 0 1 -.39-.43.79.79 0 0 1 .16-.69 1.8 1.8 0 0 1 1.18-.44.51.51 0 0 1 .44.29c.18.19.29.51.15.72zm4.33 2a1.42 1.42 0 0 1 -1.74.78 1.15 1.15 0 0 1 -.69-.62 1.05 1.05 0 0 1 0-.9c.12-.29.65-.54 1.4-.68h.09a.53.53 0 0 1 .41.2c.46.43.65.88.54 1.16zm3.08 2.7a1.36 1.36 0 0 1 -.93-.59 1.34 1.34 0 0 1 -.16-1.09c.1-.38.68-.78 1.57-1.08a.53.53 0 0 1 .49.11c.64.54 1 1.05.88 1.41a1.64 1.64 0 0 1 -1.84 1.18zm5.94 1.5a2 2 0 0 1 -1.43-.71 1.44 1.44 0 0 1 -.29-1.15c.08-.46.88-1 2.08-1.47a.51.51 0 0 1 .17 0 .53.53 0 0 1 .24.06c1 .58 1.6 1.21 1.54 1.65a2.11 2.11 0 0 1 -2.3 1.56zm3.34-2.12a.77.77 0 0 1 -.28.49c.07-1-1-1.8-1.92-2.33a1.26 1.26 0 0 0 -1-.09c-1 .38-2.24 1-2.51 1.93a.68.68 0 0 1 -.07-.32l.72-3.87a.44.44 0 0 1 .11-.24c1.71.14 3.52.24 5.41.29a.53.53 0 0 1 0 .22zm5.35 2.14a2.18 2.18 0 0 1 -3 0 1.86 1.86 0 0 1 -.53-1.34c0-.51.72-1.17 1.83-1.73a.59.59 0 0 1 .22-.05.54.54 0 0 1 .21.05c1.13.57 1.81 1.22 1.82 1.73a1.85 1.85 0 0 1 -.54 1.28zm1.31-1.44c-.08-1-1.24-1.84-2.23-2.34a1.27 1.27 0 0 0 -1.14 0c-.84.42-2.24 1.29-2.27 2.42 0 .1 0 .19.05.3a.8.8 0 0 1 -.21-.59v-.74l.41-3.57a1.43 1.43 0 0 0 0-.29h3 2.16a.77.77 0 0 1 .12.24l.08 1.7.09 2.64c.03.04-.03.1-.05.17zm5.82.79a2 2 0 0 1 -1.48.63 2.09 2.09 0 0 1 -2.17-1.74c0-.46.63-1.06 1.71-1.59a.3.3 0 0 1 .28 0c1.2.5 2 1.12 2.06 1.59a1.44 1.44 0 0 1 -.39 1.05zm1-1.67a4.87 4.87 0 0 0 -2.38-1.75 1.09 1.09 0 0 0 -.9 0c-.83.4-2.2 1.24-2.14 2.31a.74.74 0 0 1 -.42-.61l-.2-3.9c1.9-.05 3.73-.14 5.47-.27a.59.59 0 0 1 .1.26l.48 3.89s-.03-.01-.03.01zm-2.37-12.46c-1.22-.06-2.5-.1-3.82-.13l-1.08-9.9a9.87 9.87 0 0 0 2.51-.95l.17.24h.24zm-4.71-.14c-.71 0-1.41 0-2.15 0-1.54 0-3 0-4.42.07l.67-9.85a13.48 13.48 0 0 0 2.6.26 14.73 14.73 0 0 0 2.25-.19zm5.79-17.9c.11 1 .2 3.32-.85 4.74a2.8 2.8 0 0 1 -.89.76 2.78 2.78 0 0 0 .45-1.61 3.51 3.51 0 0 0 -1.76-2.78 4.76 4.76 0 0 1 3.03-1.17zm-4 .32a1.37 1.37 0 0 0 -.16.18 11 11 0 0 0 -2.51-.73l-.53-9.41a3.08 3.08 0 0 0 -.15-1 8.46 8.46 0 0 0 1.94-.54c.1.07.19.11.28.18a.59.59 0 0 1 .23.48zm4.34-24.47a13 13 0 0 1 -3.38 9 3.83 3.83 0 0 0 -1.76-1.84c.65-2.19 2.99-5.12 5.08-7.22zm-5.74-5.31.31 9.43a11.7 11.7 0 0 0 -1.21 2.43q-.37-.1-.78-.18v-12.21a1.5 1.5 0 0 0 -.06-.29 5.12 5.12 0 0 0 .56-.15 6 6 0 0 1 1 .57.43.43 0 0 1 .12.34zm-3.3-13.38c1 1.58 2.36 4.35 1.73 6.13a2.33 2.33 0 0 1 -1 1.18c-.32 0-.66-.05-1-.05s-.47 0-.69 0a3.33 3.33 0 0 1 -1-1.67c-.43-1.52.25-3.45 1.9-5.65zm-.27 9c1.87 0 3 .74 3 1.06s-.65.72-1.77.94a6.51 6.51 0 0 0 -2.53 0c-1.11-.22-1.75-.69-1.75-.94s1.11-1.14 2.99-1.14zm1.22 3.93v12c-.4 0-.81-.07-1.23-.07a10 10 0 0 0 -1.35.1v-12.11c0-.07 0-.12.05-.19a7.8 7.8 0 0 0 1.31.11 8.68 8.68 0 0 0 1.17-.09c-.05.05-.01.11-.01.17zm-5.69-3.81a1.46 1.46 0 0 1 -.74-.32c-1-.91-1.08-3.54-.84-5.58a6.3 6.3 0 0 1 2.57 4.91 2.92 2.92 0 0 0 -1.05.91zm.68 4.13a6.06 6.06 0 0 1 1.31-.79c.16.06.34.1.52.15a1.83 1.83 0 0 0 -.07.32v12.17c-.28.06-.54.13-.79.21a11.66 11.66 0 0 0 -1.44-3c.08-4.22.25-8.28.41-9.14zm-2.12 14.42a13 13 0 0 1 -3.68-9.35c2.24 2.3 4.77 5.47 5.26 7.63a3.85 3.85 0 0 0 -1.64 1.64zm1 1c0-1.38 2.25-2.55 4.92-2.55s4.93 1.17 4.93 2.55-1.85 2.33-4.18 2.52a2.22 2.22 0 0 0 -1-.2h-.15a2.19 2.19 0 0 0 -.83.15c-2.16-.41-3.77-1.41-3.77-2.59zm6.35 13.86a14.6 14.6 0 0 0 -1.5-.08 13.81 13.81 0 0 0 -2 .15l.53-9.25a1.9 1.9 0 0 1 .24-1.05 10.5 10.5 0 0 0 1.27.13c.25 0 .47-.05.71-.07a1.9 1.9 0 0 1 .19.93zm-5.84-10.16a5.22 5.22 0 0 1 .71-.68 8.46 8.46 0 0 0 1.52.5 3.07 3.07 0 0 0 -.22 1.16l-.55 9.42a10 10 0 0 0 -2.16.72c-.09-.14-.21-.24-.31-.37.27-4.83.68-9.83.93-10.87zm4.34 11.54c3.77 0 6.4 1.55 6.4 2.94s-2.63 2.94-6.4 2.94-6.39-1.55-6.39-2.94 2.54-3.06 6.31-3.06zm-8.8 3.29c-1.05-1.41-1-3.7-.85-4.74a4.39 4.39 0 0 1 3.39 1.57 3.45 3.45 0 0 0 -1.65 2.7 2.73 2.73 0 0 0 .36 1.26 2.83 2.83 0 0 1 -1.33-.91zm2.16 2.53h.29l.15-.21a8.37 8.37 0 0 0 2.74 1.25l-.8 9.96c-1.5.06-2.93.13-4.27.23.68-4.23 1.37-9.41 1.81-11.35zm7.1 12.68a32.29 32.29 0 0 1 9.82 1.26 39.16 39.16 0 0 1 -19.63 0 32.26 32.26 0 0 1 9.73-1.38zm-13.41 6.2c1.26.18 2.62.33 4 .46 0 .06.05.11 0 .17l-.7 3.27a.78.78 0 0 1 -.33.46 2.42 2.42 0 0 0 -1.08-1.89 1.13 1.13 0 0 0 -1.09-.22 3.5 3.5 0 0 0 -1.76 1.12s0-.07 0-.12l.88-3.22s-.01-.14 0-.15zm-.74-.11a.49.49 0 0 1 0 .24l-1.08 2.7c0 .06-.08.08-.11.13a2.1 2.1 0 0 0 -.63-1.68 1.12 1.12 0 0 0 -1-.38 2.49 2.49 0 0 0 -1.81 1c0-.07 0-.12 0-.19l1.12-2.49c.94.13 2.13.35 3.43.55zm-6.94-1.77a19.44 19.44 0 0 0 2.66.86l-1.29 1.81s0 0-.05 0a1.42 1.42 0 0 0 -.18-1.07 1 1 0 0 0 -1-.57 2.55 2.55 0 0 0 -1.29.46l1.14-1.57zm-1.94-1.31a3.63 3.63 0 0 0 1.42 1.07l-.57.59s0 0-.07 0a.71.71 0 0 0 0-.21 1.05 1.05 0 0 0 -.36-.75l-1.09-.11zm-.87 1.31a1 1 0 0 1 .66-.22.58.58 0 0 1 .33.07.55.55 0 0 1 .15.36.43.43 0 0 1 -.11.34.84.84 0 0 1 -1 .15.38.38 0 0 1 -.19-.29.53.53 0 0 1 .16-.41z" fill="#23376d" transform="translate(-155.76 -181.89)"/></svg>